<?xml version="1.0" encoding="utf-8"?>
<!-- Generator: Adobe Illustrator 24.3.0, SVG Export Plug-In . SVG Version: 6.00 Build 0)  -->
<svg version="1.1" id="Capa_1" xmlns="http://www.w3.org/2000/svg" xmlns:xlink="http://www.w3.org/1999/xlink" x="0px" y="0px"
	 viewBox="0 0 1984.3 1984.3" style="enable-background:new 0 0 1984.3 1984.3;" xml:space="preserve">
<style type="text/css">
	.st0{fill:url(#SVGID_1_);}
	.st1{fill:#5A3991;}
	.st2{fill:#FFFFFF;}
	.st3{fill-rule:evenodd;clip-rule:evenodd;fill:#5A3991;}
	.st4{fill:#867AAA;}
</style>
<linearGradient id="SVGID_1_" gradientUnits="userSpaceOnUse" x1="-863.7" y1="-1883.5771" x2="-345.3" y2="-1883.5771" gradientTransform="matrix(1 0 0 1 0 2272.6772)">
	<stop  offset="0" style="stop-color:#FFFFFF"/>
	<stop  offset="0" style="stop-color:#56358C"/>
	<stop  offset="0.2039" style="stop-color:#6C4F9C"/>
	<stop  offset="0.6844" style="stop-color:#9883BC"/>
	<stop  offset="1" style="stop-color:#FFFFFF"/>
</linearGradient>
<ellipse class="st0" cx="-604.5" cy="389.1" rx="259.2" ry="278.6"/>
<g>
	<path class="st1" d="M5020.6,80.7c4.6,61.5,22.2,295.7-120.1,390.3c-128.7,85.5-312.2,6.6-412.8-36.7
		c-96.2-41.4-157.5-91-266.6-180.8c-80.2-65.9-188.9-162.8-307.7-294c257.4-192.1,514.8-384.2,772.2-576.2
		c44.8,68.4,107.8,169.3,175.4,296.3C4960.8-132.8,5011.8-36.7,5020.6,80.7z"/>
	<path class="st1" d="M5575,217.8c-35.5,50.3-170.9,242.4-340.8,224.9C5080.5,427,4989,249.4,4938.8,152
		c-48-93.1-63.7-170.3-90.9-309c-19.9-101.8-42.4-245.8-50.6-422.6c312.6,11.2,625.3,22.2,938,33.4c0.4,85.9-4.4,208.2-28.6,352.9
		C5676.8-14.4,5657.5,100.8,5575,217.8z"/>
	<path class="st2" d="M5129.9,127.7c-12.7,12.7-12.7,33.5,0,46.2c40.4,40.4,93.4,60.5,146.4,60.5s106.1-20.1,146.4-60.5
		c12.8-12.7,12.8-33.5,0-46.2c-12.7-12.7-33.5-12.7-46.2,0c-55.2,55.2-145.1,55.2-200.2,0C5163.4,114.9,5142.6,114.9,5129.9,127.7z"
		/>
	<path class="st2" d="M5422.7-242.1c13.7-13.7,31.9-21.3,51.3-21.3c19.3,0,37.6,7.5,51.3,21.3c6.4,6.4,14.7,9.6,23.2,9.6
		c8.4,0,16.7-3.1,23.2-9.6c12.7-12.7,12.7-33.5,0-46.2c-26.1-26.1-60.7-40.4-97.6-40.4s-71.5,14.4-97.5,40.4
		c-12.8,12.7-12.8,33.5,0,46.2C5389.2-229.2,5409.9-229.2,5422.7-242.1z"/>
	<path class="st2" d="M5027.3-242.1c13.7-13.7,31.9-21.3,51.3-21.3c19.3,0,37.6,7.5,51.3,21.3c6.4,6.4,14.7,9.6,23.2,9.6
		c8.4,0,16.8-3.1,23.2-9.6c12.7-12.7,12.7-33.5,0-46.2c-26.1-26.1-60.7-40.4-97.6-40.4s-71.5,14.4-97.5,40.4
		c-12.8,12.7-12.8,33.5,0,46.2C4993.8-229.2,5014.5-229.2,5027.3-242.1z"/>
	<path class="st1" d="M4686.7,544.5c29.4,5.4,57.5,8.2,84,8.2c70,0,129.7-19.1,178-57.1c42.2-33.2,72.3-78.4,90.2-134.8
		c0.4,0.5,0.8,0.9,1.3,1.5c71.9,82,151.4,123.7,236.1,123.7s164.1-41.6,236.1-123.7c59.9-68.4,113.9-163.7,160.2-283.3
		c88.9-229.5,128.8-495.9,128.8-658c0-18.1-14.6-32.8-32.7-32.8H4784c-12.6,0-23.6,7.2-29,17.6c-17.7-26-35.4-50.2-52.5-71.9
		c-5.3-6.8-13.3-11.2-21.8-12.2c-8.7-1-17.3,1.5-24.1,6.8L3882.9-62.2c-14.2,11.2-16.7,31.7-5.4,45.9
		c100.3,127.3,296.3,312,508.2,437.2C4496.1,486.4,4597.4,527.8,4686.7,544.5z M5735.4-546.2c-4.8,157.6-43.7,394.9-123.9,601.6
		c-52.8,136.3-166.7,365.1-335.3,365.1c-168.6,0-282.3-228.8-335.3-365.1c-80.2-206.8-119-444-123.8-601.6H5735.4z M3949.4-31.3
		l721.4-568c28.1,37.9,57.1,81.8,85.2,128.8c13,158.6,52.7,365.9,124,549.7c32.4,83.6,68.5,155.3,107.7,214.2
		c-10.6,66.9-37.3,117.7-79.4,150.9c-132.5,104.3-363.3-5-489.2-79.4C4228,251.9,4050.7,89.4,3949.4-31.3z"/>
	<path class="st2" d="M4612.1,304.7c-2.1,18,10.8,34.2,28.6,36.3c1.4,0.1,2.6,0.2,3.9,0.2c16.4,0,30.5-12.2,32.5-28.9
		c4.5-37.6,23.3-71.2,53-94.6c29.6-23.4,66.8-33.8,104.4-29.3c18,2.1,34.2-10.6,36.3-28.6c2.1-18-10.6-34.2-28.6-36.3
		c-54.9-6.6-109.1,8.7-152.6,42.9C4646.1,200.6,4618.6,249.8,4612.1,304.7z"/>
	<path class="st2" d="M4391.1-50.8c-18-2.1-34.2,10.6-36.3,28.6c-2.3,19.3-11.9,36.4-27.1,48.4s-34.1,17.3-53.4,15
		c-18-2.2-34.2,10.6-36.3,28.6c-2.2,18,10.6,34.2,28.6,36.3c5.5,0.6,11.1,0.9,16.6,0.9c30.8,0,60.5-10.2,85.1-29.5
		c28.9-22.8,47.3-55.5,51.7-92.2C4421.8-32.4,4409-48.7,4391.1-50.8z"/>
	<path class="st2" d="M4577-138.3c5.5,0.6,11,0.9,16.4,0.9c68.9,0,128.6-51.7,136.9-121.7c2.1-18-10.6-34.2-28.6-36.3
		c-18-2.1-34.2,10.6-36.3,28.6c-4.7,39.7-40.9,68.2-80.6,63.5c-18-2.2-34.2,10.6-36.3,28.6C4546.2-156.8,4559-140.5,4577-138.3z"/>
</g>
<g>
	<path class="st3" d="M2265.1-1279.8h-314.2l52.2-176.4l216.1-6.3l52.2,182.7L2265.1-1279.8L2265.1-1279.8z M1707.7-573.1
		c-44.9-116.9-44.9-235.9,0-352.8c39.7-105.4,125.3-190,229.6-235.9c52.2-19.9,111.7-32.4,170.1-32.4c59.5,0,111.7,12.5,171.2,32.4
		c104.4,45.9,182.7,130.5,228.6,235.9c45.9,116.9,45.9,235.9,0,352.8c-45.9,105.4-124.2,190-228.6,235.9
		c-111.7,45.9-229.7,45.9-341.4,0C1833-383.1,1747.3-467.6,1707.7-573.1L1707.7-573.1z M1367.4-1279.8
		c-52.2,7.3-91.9,52.2-91.9,98.1v858.1c0,58.5,45.9,104.4,98.1,104.4h1461.5c59.5,0,104.4-45.9,104.4-104.4v-858.1
		c0-52.2-44.9-98.1-104.4-98.1c-6.3-32.4-6.3-78.3-26.1-98.1c-6.3-6.3-19.8-6.3-33.4-6.3h-294.4c-45.9,0-45.9,58.4-58.4,104.4h-33.4
		l-72-254.7c-6.3-26.1-26.1-45.9-52.2-45.9l-301.7,6.3c-26.1,0-45.9,13.6-58.4,39.6l-72,254.7H1367.4z M2304.8-945.7
		c-203.6-202.5-537.6-19.9-485.4,262c52.2,254.7,373.7,326.7,517.8,104.4C2415.4-690,2402.9-847.6,2304.8-945.7L2304.8-945.7z"/>
</g>
<rect x="2750.3" y="674.7" class="st1" width="1032.3" height="500.7"/>
<g>
	<path class="st1" d="M3995.5,1292.5c12-12,12-31.5,0-43.5s-31.5-12-43.5,0c-21,21-61.7,55.6-129.6,90.7l-0.1,0.1
		c-28,14.5-60.5,29-98.2,42.8c-129.3,47.2-281.1,71.1-451,71.1c-243.1,0-430.5-53.2-553.9-117.3c-1.8-1.2-3.7-2.1-5.6-2.9
		c-51.5-27.4-91.6-56.6-119.4-84.4c-12-12-31.5-12-43.5,0s-12,31.5,0,43.5c22.2,22.2,65,58.6,136,96.1l532.9,374.5l-664.8,467.2
		c-13.9,9.8-17.3,29-7.5,42.9c6,8.5,15.5,13.1,25.2,13.1c6.1,0,12.3-1.8,17.7-5.6l682.9-479.9l682.9,479.9
		c5.4,3.8,11.6,5.6,17.7,5.6c9.7,0,19.2-4.6,25.2-13.1c9.8-13.9,6.4-33.1-7.5-42.9l-664.8-467.2l526.9-370.3
		C3927.1,1354.3,3972.1,1316,3995.5,1292.5z M3273.1,1725.5L2915.2,1474c109.3,27.4,229.2,41.2,357.9,41.2
		c128.8,0,248-13.3,355.7-39.7L3273.1,1725.5z"/>
	<path class="st1" d="M2780,469c-17,0-30.8,13.8-30.8,30.8v123.4c0,0.1,0,0.2,0,0.3v647.3c0,17,13.8,30.8,30.8,30.8
		s30.8-13.8,30.8-30.8v-104.2c136.3,46.8,291.3,70.5,461.2,70.5c171.6,0,326.6-23.2,461.2-69.2v102.9c0,17,13.8,30.8,30.8,30.8
		s30.8-13.8,30.8-30.8v-771c0-17-13.8-30.8-30.8-30.8s-30.8,13.8-30.8,30.8v111.8c-6.5-2.3-13.8-2.5-20.8,0.1
		c-125.9,45.9-274.1,69.2-440.4,69.2c-211.9,0-365.3-41-461.2-78.5V499.8C2810.8,482.8,2797,469,2780,469z M3272,742.5
		c173.4,0,328.6-24.5,461.2-72.8v433c-132.7,48.3-287.8,72.8-461.2,72.8c-171.5,0-326.6-25-461.2-74.2V668.2
		C2912.7,705.2,3066.4,742.5,3272,742.5z"/>
</g>
<rect x="864.6" y="-546" class="st1" width="91" height="124"/>
<g>
	<path class="st4" d="M242.8,1846.6h1510.7c16.1,0,29.2-13.1,29.2-29.2v-745.7c0-16.1-13.1-29.2-29.2-29.2H351.7l87.1-50.3
		c2-0.6,4-1.4,5.9-2.5s3.7-2.4,5.3-3.9l175.7-101.5c2-0.6,4-1.4,5.9-2.5s3.7-2.4,5.3-3.9l175.7-101.5c2-0.6,4-1.4,5.9-2.5
		c2-1.1,3.7-2.4,5.3-3.9l175.7-101.5c2-0.6,4-1.4,5.9-2.5s3.7-2.4,5.3-3.9l175.7-101.5c2-0.6,4-1.4,5.9-2.5s3.7-2.5,5.3-3.9
		l175.7-101.5c2-0.6,4-1.4,5.9-2.5s3.7-2.5,5.3-3.9l181.2-104.6c14-8.1,18.7-25.9,10.7-39.9l-94.8-164.2
		c-3.9-6.7-10.2-11.6-17.7-13.6s-15.4-1-22.1,2.9l-181.3,104.6c-2.1,0.6-4.1,1.5-6,2.6s-3.7,2.4-5.3,3.9l-175.6,101.4
		c-2,0.6-4.1,1.5-6,2.6s-3.7,2.4-5.2,3.9L886.6,447.4c-2.1,0.6-4.1,1.5-6,2.6s-3.7,2.4-5.3,3.9L699.7,555.3c-2.1,0.6-4.1,1.5-6,2.6
		s-3.7,2.4-5.3,3.9L512.8,663.2c-2.1,0.6-4.1,1.5-6,2.6s-3.7,2.4-5.3,3.9L325.9,771.1c-2.1,0.6-4.1,1.5-6,2.6s-3.7,2.4-5.3,3.9
		L133.4,882.2c-6.7,3.9-11.6,10.2-13.6,17.7s-1,15.4,2.9,22.1l90.9,157.4V1262c0,0,0,0,0,0.1v555.3
		C213.6,1833.5,226.6,1846.6,242.8,1846.6z M1566.8,1100.9h157.4v131.9h-157.4V1100.9z M1508.4,1100.9v131.9H1351v-131.9H1508.4z
		 M1135.2,1100.9h157.4v131.9h-157.4V1100.9z M919.4,1100.9h157.4v131.9H919.4V1100.9z M861,1100.9v131.9H703.6v-131.9H861z
		 M487.7,1100.9h157.4v131.9H487.7V1100.9z M458.6,1291.9c2.2,0,4.4-0.3,6.5-0.8h202.8c2.1,0.5,4.3,0.8,6.5,0.8s4.4-0.3,6.5-0.8
		h202.8c2.1,0.5,4.3,0.8,6.5,0.8s4.4-0.3,6.5-0.8h202.8c2.1,0.5,4.3,0.8,6.5,0.8c2.3,0,4.4-0.3,6.5-0.8h202.8
		c2.1,0.5,4.3,0.8,6.5,0.8c2.3,0,4.4-0.3,6.5-0.8h202.8c2.1,0.5,4.3,0.8,6.5,0.8s4.4-0.3,6.5-0.8h180.1v497H271.9v-497H452
		C454.2,1291.7,456.3,1291.9,458.6,1291.9z M429.4,1100.9v131.9H271.9v-131.9H429.4z M1445.6,192.1l65.6,113.6l-136.3,78.7
		l-65.6-113.6L1445.6,192.1z M1258.7,300l65.6,113.6L1188,492.3l-65.6-113.6L1258.7,300z M1071.8,407.9l65.6,113.6L1001,600.2
		l-65.6-113.6L1071.8,407.9z M884.9,515.8l65.6,113.6l-136.4,78.7l-65.6-113.6L884.9,515.8z M698,623.7l65.6,113.6L627.2,816
		l-65.6-113.6L698,623.7z M511.1,731.6l65.6,113.6l-136.3,78.7l-65.6-113.6L511.1,731.6z M187.8,918.2l136.3-78.7l65.6,113.6
		l-136.4,78.7L187.8,918.2z"/>
	<path class="st4" d="M968.6,1704.2H1639c16.1,0,29.2-13.1,29.2-29.2v-271.5c0-16.1-13.1-29.2-29.2-29.2H968.6
		c-16.1,0-29.2,13.1-29.2,29.2V1675C939.4,1691.2,952.5,1704.2,968.6,1704.2z M997.8,1432.8h612v213.1h-612L997.8,1432.8
		L997.8,1432.8z"/>
	<path class="st4" d="M371.3,1432.8h381.3c16.1,0,29.2-13.1,29.2-29.2s-13.1-29.2-29.2-29.2H371.3c-16.1,0-29.2,13.1-29.2,29.2
		C342.1,1419.7,355.2,1432.8,371.3,1432.8z"/>
	<path class="st4" d="M371.3,1568.5h190.6c16.1,0,29.2-13.1,29.2-29.2s-13.1-29.2-29.2-29.2H371.3c-16.1,0-29.2,13.1-29.2,29.2
		C342.1,1555.4,355.2,1568.5,371.3,1568.5z"/>
	<path class="st4" d="M371.3,1704.2h289.1c16.1,0,29.2-13.1,29.2-29.2s-13.1-29.2-29.2-29.2H371.3c-16.1,0-29.2,13.1-29.2,29.2
		C342.1,1691.2,355.2,1704.2,371.3,1704.2z"/>
</g>
<rect x="241.9" y="1240" class="st4" width="1540.7" height="577.4"/>
<rect x="271.9" y="1100.9" class="st2" width="1452.3" height="131.9"/>
</svg>
