<?xml version="1.0" encoding="utf-8"?>
<!-- Generator: Adobe Illustrator 24.3.0, SVG Export Plug-In . SVG Version: 6.00 Build 0)  -->
<svg version="1.1" id="Capa_1" xmlns="http://www.w3.org/2000/svg" xmlns:xlink="http://www.w3.org/1999/xlink" x="0px" y="0px"
	 viewBox="0 0 32.3 29.3" style="enable-background:new 0 0 32.3 29.3;" xml:space="preserve">
<style type="text/css">
	.st0{fill:#867AAA;}
</style>
<g>
	<g>
		<path class="st0" d="M13.1,12.9c0,0,3-0.2,3-3.9s-2.5-5.5-5.6-5.5H0.2v20.6h10.3c0,0,6.3,0.2,6.3-6.1C16.8,18,17,12.9,13.1,12.9z
			 M4.7,7.2h5.8c0,0,1.4,0,1.4,2.1s-0.8,2.5-1.8,2.5H4.7V7.2z M10.2,20.4H4.7v-5.5h5.8c0,0,2.1,0,2.1,2.8
			C12.6,20.2,11,20.4,10.2,20.4z"/>
	</g>
	<g>
		<path class="st0" d="M25.1,8.7c-7.6,0-7.6,7.9-7.6,7.9s-0.5,7.9,7.6,7.9c0,0,6.8,0.4,6.8-5.5h-3.5c0,0,0.1,2.2-3.2,2.2
			c0,0-3.5,0.2-3.5-3.6H32C32,17.7,33.1,8.7,25.1,8.7z M28.2,14.9h-6.5c0,0,0.4-3.2,3.5-3.2C28.3,11.8,28.2,14.9,28.2,14.9z"/>
	</g>
	<g>
		<rect x="20.9" y="4.7" class="st0" width="8.2" height="2.5"/>
	</g>
</g>
</svg>
