<?xml version="1.0" encoding="utf-8"?>
<!-- Generator: Adobe Illustrator 24.3.0, SVG Export Plug-In . SVG Version: 6.00 Build 0)  -->
<svg version="1.1" id="_x34_04" xmlns="http://www.w3.org/2000/svg" xmlns:xlink="http://www.w3.org/1999/xlink" x="0px" y="0px"
	 viewBox="0 0 899.7 1093" style="enable-background:new 0 0 899.7 1093;" xml:space="preserve">
<style type="text/css">
	.st0{clip-path:url(#SVGID_2_);}
	.st1{opacity:0.14;clip-path:url(#SVGID_4_);fill:#6E6D6D;enable-background:new    ;}
	.st2{clip-path:url(#SVGID_6_);}
	.st3{fill:#E9ECEF;}
	.st4{fill:#867AAA;}
	.st5{opacity:0.14;clip-path:url(#SVGID_8_);fill:#867AAA;enable-background:new    ;}
	.st6{fill:#5C568F;}
	.st7{fill:#FFFFFF;}
	.st8{clip-path:url(#SVGID_10_);}
	.st9{opacity:0.14;clip-path:url(#SVGID_12_);fill:#867AAA;enable-background:new    ;}
	.st10{clip-path:url(#SVGID_14_);}
</style>
<g>
	<g>
		<defs>
			<rect id="SVGID_1_" x="-321" y="-64.2" width="1526.8" height="1030.6"/>
		</defs>
		<clipPath id="SVGID_2_">
			<use xlink:href="#SVGID_1_"  style="overflow:visible;"/>
		</clipPath>
		<g class="st0">
			<g>
				<defs>
					<rect id="SVGID_3_" x="-321" y="-64.2" width="1526.8" height="1030.6"/>
				</defs>
				<clipPath id="SVGID_4_">
					<use xlink:href="#SVGID_3_"  style="overflow:visible;"/>
				</clipPath>
				<circle class="st1" cx="452.6" cy="406.9" r="253.6"/>
			</g>
			<g>
				<defs>
					<rect id="SVGID_5_" x="-321" y="-64.2" width="1526.8" height="1030.6"/>
				</defs>
				<clipPath id="SVGID_6_">
					<use xlink:href="#SVGID_5_"  style="overflow:visible;"/>
				</clipPath>
				<g class="st2">
					<path class="st3" d="M251.4,524.1l50-21.3l-25.8-60.6l-50,21.3l-1.3-3c-2.1-5-7.9-7.4-13-5.2l-9.6,4.1l-0.7-1.7
						c-0.8-2-3.1-2.9-5-2l-11.6,4.9c-2,0.8-2.9,3.1-2,5l0.7,1.7l-5.4,2.3l-0.7-1.7c-0.8-2-3.1-2.9-5-2l-11.6,4.9c-2,0.8-2.9,3.1-2,5
						l0.7,1.7l-67.8,28.9c-5,2.1-7.4,7.9-5.2,13l6.4,14.9l-22.5,9.6l4,9.3C17.6,577.4-45.6,603.9-107,605.7
						c-26.3,0.8-77.2-9-123.4-82.5c-12.6-20.1-22.9-41.6-31.2-60c-1.4-3.2-2.9-6.6-4.3-10.2c-7.2-17.4-15.3-37.1-34.2-46.6
						c-27.1-13.6-51.2,1.7-70.6,14c-2.3,1.5-4.7,3-7,4.4c-6.2,3.8-12.6,7.9-18.7,11.9c-32.5,20.9-66.1,42.5-102.5,38.9
						c-32.9-3.3-62.2-25-78.5-58.1c-32.6-66.3-27.1-133.4,16.5-205.1c38.4-63.2,99.4-119.1,153.2-168.5c8.1-7.5,15.8-14.5,23.4-21.5
						c15.3-14.3,32.6-31.2,43.6-52.4c12.6-24.1,14.6-50.1,5.5-71.1c-7.7-18-24-33.4-48.2-45.7c-39.2-19.9-81.1-28.2-124.3-24.9
						c-37.5,2.9-77.1,14.8-117.8,35.3c-72.8,36.6-137.8,93.8-197.2,150.2l-42.2,40.1l13.1,13.8l42.2-40.1
						c58.3-55.4,122-111.6,192.6-147.1c38.5-19.4,75.7-30.6,110.7-33.3c39.7-3.1,78.1,4.6,114.2,22.9c20.2,10.2,33.4,22.4,39.3,36.2
						c6.7,15.5,4.8,36-4.9,54.8c-9.6,18.5-25.5,34.1-39.7,47.2c-7.5,7-15.2,14-23.3,21.4C-475.3,80-537.4,136.9-577.3,202.4
						c-22.1,36.4-34.9,70.9-38.9,105.8c-4.6,39.6,2.6,79.2,21.6,117.7c3.7,7.5,7.9,14.5,12.6,20.9c20.1,27.3,49.2,44.7,81.1,47.8
						c43.1,4.3,81.1-20.3,114.7-41.9c6.4-4.1,12.4-7.9,18.4-11.6c2.4-1.5,4.8-3,7.3-4.5c20.8-13.2,35.6-21.2,51.8-13.1
						c12.6,6.4,19,21.8,25.1,36.8c1.5,3.6,3,7.3,4.6,10.8c8.6,18.9,19.2,41.2,32.4,62.2c22,35,69.5,93.4,140.2,91.4
						c64.9-1.8,129.9-29.2,187.7-54l4,9.4l22.5-9.6l6.5,15.3c2.1,5,7.9,7.4,13,5.2l67.8-28.8l0.7,1.7c0.8,2,3.1,2.9,5,2l11.6-4.9
						c2-0.8,2.9-3.1,2-5l-0.7-1.7l5.4-2.3l0.7,1.7c0.8,2,3.1,2.9,5,2l11.6-4.9c2-0.8,2.9-3.1,2-5l-0.7-1.7l9.6-4.1
						c5-2.1,7.4-7.9,5.2-13L251.4,524.1z"/>
					<g>
						<g>
							<g>
								<g>
									<g>
										<g>
											<path id="XMLID_1_" class="st4" d="M222.7,535c0.8,2,3.1,2.9,5,2l11.6-4.9c2-0.8,2.9-3.1,2-5l-0.7-1.7l9.6-4.1
												c5-2.1,7.4-7.9,5.2-13l-28.3-66.5c-2.1-5-7.9-7.4-13-5.2l-9.6,4.1l-0.7-1.7c-0.8-2-3.1-2.9-5-2l-11.6,4.9
												c-2,0.8-2.9,3.1-2,5l0.7,1.7l-5.4,2.3l-0.7-1.7c-0.8-2-3.1-2.9-5-2l-11.6,4.9c-2,0.8-2.9,3.1-2,5l0.7,1.7l-67.8,28.8
												c-5,2.1-7.4,7.9-5.2,13l28.3,66.5c2.1,5,7.9,7.4,13,5.2l67.8-28.8l0.7,1.7c0.8,2,3.1,2.9,5,2l11.6-4.9c2-0.8,2.9-3.1,2-5
												l-0.7-1.7l5.4-2.3L222.7,535z"/>
										</g>
										<g>
											<defs>
												<path id="SVGID_7_" d="M222.7,535c0.8,2,3.1,2.9,5,2l11.6-4.9c2-0.8,2.9-3.1,2-5l-0.7-1.7l9.6-4.1c5-2.1,7.4-7.9,5.2-13
													l-28.3-66.5c-2.1-5-7.9-7.4-13-5.2l-9.6,4.1l-0.7-1.7c-0.8-2-3.1-2.9-5-2l-11.6,4.9c-2,0.8-2.9,3.1-2,5l0.7,1.7
													l-5.4,2.3l-0.7-1.7c-0.8-2-3.1-2.9-5-2l-11.6,4.9c-2,0.8-2.9,3.1-2,5l0.7,1.7l-67.8,28.8c-5,2.1-7.4,7.9-5.2,13
													l28.3,66.5c2.1,5,7.9,7.4,13,5.2l67.8-28.8l0.7,1.7c0.8,2,3.1,2.9,5,2l11.6-4.9c2-0.8,2.9-3.1,2-5l-0.7-1.7l5.4-2.3
													L222.7,535z"/>
											</defs>
											<clipPath id="SVGID_8_">
												<use xlink:href="#SVGID_7_"  style="overflow:visible;"/>
											</clipPath>
											<polyline class="st5" points="102,533.6 250.9,470.8 222.6,418 72.5,483.9 86,519.3 102,533.6 											"/>
										</g>
									</g>
									
										<rect x="239.1" y="431.6" transform="matrix(0.9203 -0.3913 0.3913 0.9203 -160.5192 141.2451)" class="st6" width="54.4" height="65.8"/>
									<g>
										
											<rect x="265" y="430.6" transform="matrix(0.9203 -0.3913 0.3913 0.9203 -148.7521 141.0357)" class="st7" width="13.5" height="9.8"/>
										
											<rect x="271.4" y="445.7" transform="matrix(0.9203 -0.3913 0.3913 0.9203 -154.1501 144.7459)" class="st7" width="13.5" height="9.8"/>
										
											<rect x="277.8" y="460.8" transform="matrix(0.9203 -0.3913 0.3913 0.9203 -159.548 148.4575)" class="st7" width="13.5" height="9.8"/>
										
											<rect x="284.2" y="475.9" transform="matrix(0.9203 -0.3913 0.3913 0.9203 -164.935 152.1794)" class="st7" width="13.5" height="9.8"/>
									</g>
								</g>
								
									<rect x="198.3" y="446.2" transform="matrix(0.9203 -0.3913 0.3913 0.9203 -176.547 117.9769)" class="st6" width="5.9" height="92.1"/>
							</g>
							
								<rect x="77" y="519.7" transform="matrix(0.9203 -0.3913 0.3913 0.9203 -203.8783 78.284)" class="st6" width="26.3" height="39.4"/>
						</g>
						<path class="st6" d="M-581.5,429.3c-4.7-6.4-9-13.4-12.6-20.9c-18.9-38.5-26.2-78.1-21.6-117.7c4-34.8,16.7-69.4,38.9-105.8
							c39.9-65.5,102-122.5,156.8-172.7c8.1-7.4,15.8-14.5,23.3-21.4c14.1-13.1,30-28.8,39.7-47.2c9.8-18.7,11.6-39.2,4.9-54.8
							c-5.9-13.8-19.1-26-39.3-36.2c-36.1-18.3-74.5-26-114.2-22.9c-35,2.7-72.2,13.9-110.7,33.3c-70.5,35.5-134.3,91.7-192.6,147
							l-42.2,40.1l-13.1-13.8l42.2-40.1C-762.7-60.1-697.8-117.3-625-154c40.7-20.5,80.3-32.4,117.8-35.3c43.2-3.4,85,5,124.3,24.9
							c24.3,12.3,40.6,27.7,48.3,45.7c9.1,21.1,7,47-5.5,71.1c-11,21.2-28.3,38.2-43.6,52.4c-7.5,7-15.2,14-23.4,21.5
							C-461,75.7-522,131.7-560.5,194.9c-43.7,71.7-49.1,138.8-16.5,205.1c16.3,33.1,45.6,54.9,78.5,58.1c36.4,3.6,70-18,102.5-38.9
							c6.2-4,12.5-8.1,18.7-11.9c2.3-1.4,4.6-2.9,7-4.4c19.4-12.3,43.6-27.7,70.6-14c19,9.6,27.1,29.3,34.3,46.6
							c1.5,3.6,2.9,7,4.3,10.2c8.3,18.4,18.6,39.9,31.2,60c46.3,73.5,97.2,83.3,123.5,82.5c63-1.8,127.9-29.8,185.3-54.5l8.3-3.6
							l7.5,17.6l-8.3,3.6c-58.9,25.4-125.7,54.2-192.3,56c-70.6,2-118.1-56.4-140.2-91.4c-13.2-21-23.8-43.3-32.4-62.2
							c-1.6-3.5-3.1-7.2-4.6-10.8c-6.2-15-12.6-30.5-25.1-36.8c-16.2-8.1-31-0.1-51.8,13.1c-2.4,1.6-4.9,3.1-7.3,4.5
							c-6,3.7-12,7.5-18.4,11.6c-33.6,21.6-71.7,46.2-114.7,41.9C-532.4,474-561.4,456.6-581.5,429.3z"/>
					</g>
				</g>
			</g>
			<g>
				<defs>
					<rect id="SVGID_9_" x="-321" y="-64.2" width="1526.8" height="1030.6"/>
				</defs>
				<clipPath id="SVGID_10_">
					<use xlink:href="#SVGID_9_"  style="overflow:visible;"/>
				</clipPath>
				<g class="st8">
					<path class="st3" d="M1651.8,659.3c-30.6,0.2-70.6-20.4-90.9-66.8c-25-57.3-12-118.9,0.6-178.5c1-4.5,1.9-9.1,2.9-13.6l0.7-3.5
						c14.3-69,29-140.3,29.3-212.1c0.2-43.8-8.6-88.6-24.6-125.9c-19.1-44.7-48.2-77.7-84-95.4c-33.6-16.6-71.4-18.2-101-4.3
						c-26.4,12.4-44.3,35.2-51.7,66c-12.3,50.9-2.2,104,7.4,155.4c1.3,6.6,2.5,13.1,3.7,19.6c0.6,3.5,1.3,7.1,1.9,10.6
						c13.6,74.1,29,158.1-20.5,219.9c-15.1,18.9-32.1,28.8-51.8,30.1c-51.6,3.6-110.4-52.3-157.7-97.2
						c-18.4-17.5-34.4-32.6-47.9-42.4c-85.3-61.9-161.7-81.9-233.1-61.1l-5.9-12.6l-26.7,12.3L797,248c-2-4.5-7.3-6.4-11.8-4.4
						l-68.4,31.6l-1.3-2.9c-1.1-2.3-3.8-3.3-6.1-2.2L642,301.2c-2.3,1.1-3.3,3.8-2.2,6.1l1.3,2.9l-29.6,13.7
						c-4.5,2-6.4,7.3-4.4,11.8L616,355l-67.7,31.4c-5.4,2.5-7.8,9-5.3,14.4c2.5,5.4,9,7.8,14.4,5.3l67.7-31.4l9,19.5
						c2,4.5,7.3,6.4,11.8,4.4l29.6-13.7l1.3,2.9c1.1,2.3,3.8,3.3,6.1,2.2l67.4-31.1c2.3-1.1,3.3-3.8,2.2-6.1l-1.3-2.9l68.4-31.6
						c4.5-2,6.4-7.3,4.4-11.8l-4.1-8.8l-1.4-3l26.7-12.3l-6.5-14.1c68.2-19.3,141.6,0.4,223.9,60.2c13,9.5,28.8,24.4,47,41.6
						c48.6,46.1,109.1,103.5,164.6,99.7c22.1-1.5,41.7-12.8,58.3-33.5c52-65,36.2-151.2,22.3-227.2c-0.7-3.6-1.3-7.1-1.9-10.6
						c-1.2-6.5-2.4-13.1-3.7-19.7c-9.5-50.5-19.4-102.7-7.5-151.6c6.8-28,23-48.7,46.8-59.9c27.2-12.7,62-11.1,93.2,4.2
						c33.9,16.7,61.5,48.1,79.8,90.8c15.5,36.3,24,79.8,23.9,122.4c-0.3,70.9-14.9,141.8-29.1,210.3l-0.7,3.5
						c-0.9,4.5-1.9,9-2.9,13.6c-12.8,61-26.1,124.1,0,184c8.7,20,22.7,38,39.5,50.9c18.3,14.1,39,21.4,59.6,21.3L1651.8,659.3z"/>
					<g>
						<g>
							<g>
								<g>
									<g>
										<path id="XMLID_2_" class="st4" d="M797,230.7l27,58.5c2,4.5,0.1,9.8-4.4,11.8l-173.8,80.2c-4.5,2-9.8,0.1-11.8-4.4
											l-27-58.5c-2-4.5-0.1-9.8,4.4-11.8l173.8-80.2C789.7,224.3,795,226.2,797,230.7z"/>
									</g>
									<g>
										<defs>
											<path id="SVGID_11_" d="M797,230.7l27,58.5c2,4.5,0.1,9.8-4.4,11.8l-173.8,80.2c-4.5,2-9.8,0.1-11.8-4.4l-27-58.5
												c-2-4.5-0.1-9.8,4.4-11.8l173.8-80.2C789.7,224.3,795,226.2,797,230.7z"/>
										</defs>
										<clipPath id="SVGID_12_">
											<use xlink:href="#SVGID_11_"  style="overflow:visible;"/>
										</clipPath>
										<polygon class="st9" points="813.8,260 608.3,352.5 591.6,301.2 664.5,246.8 804.2,208.4 										"/>
									</g>
								</g>
								<path class="st4" d="M715.6,255l37.2,80.5c1.1,2.3,0.1,5-2.2,6.1l-67.4,31.1c-2.3,1.1-5,0.1-6.1-2.2L639.8,290
									c-1.1-2.3-0.1-5,2.2-6.1l67.4-31.1C711.8,251.7,714.5,252.7,715.6,255z"/>
								<g>
									<path class="st6" d="M744.4,332L744.4,332c0.8,1.7,0.1,3.6-1.6,4.4l-58.6,27.1c-1.7,0.8-3.6,0.1-4.4-1.6l0,0
										c-0.8-1.7-0.1-3.6,1.6-4.4l58.6-27C741.6,329.7,743.6,330.4,744.4,332z"/>
									<path class="st6" d="M738.1,318.4L738.1,318.4c0.8,1.7,0.1,3.6-1.6,4.4l-58.6,27c-1.7,0.8-3.6,0.1-4.4-1.6l0,0
										c-0.8-1.7-0.1-3.6,1.6-4.4l58.6-27C735.3,316,737.3,316.7,738.1,318.4z"/>
									<path class="st6" d="M731.8,304.7L731.8,304.7c0.8,1.7,0.1,3.6-1.6,4.4l-58.6,27c-1.7,0.8-3.6,0.1-4.4-1.6l0,0
										c-0.8-1.7-0.1-3.6,1.6-4.4l58.6-27C729,302.3,731,303,731.8,304.7z"/>
									<path class="st6" d="M725.4,291L725.4,291c0.8,1.7,0.1,3.6-1.6,4.4l-58.6,27c-1.7,0.8-3.6,0.1-4.4-1.6l0,0
										c-0.8-1.7-0.1-3.6,1.6-4.4l58.6-27C722.7,288.6,724.6,289.3,725.4,291z"/>
									<path class="st6" d="M719.1,277.2L719.1,277.2c0.8,1.7,0.1,3.6-1.6,4.4l-58.6,27c-1.7,0.8-3.6,0.1-4.4-1.6l0,0
										c-0.8-1.7-0.1-3.6,1.6-4.4l58.6-27C716.4,274.9,718.3,275.6,719.1,277.2z"/>
									<path class="st6" d="M712.8,263.5L712.8,263.5c0.8,1.7,0.1,3.6-1.6,4.4l-58.6,27c-1.7,0.8-3.6,0.1-4.4-1.6l0,0
										c-0.8-1.7-0.1-3.6,1.6-4.4l58.6-27C710,261.2,712,261.9,712.8,263.5z"/>
								</g>
								<path class="st6" d="M616.1,337.8l9.1,19.7l-67.8,31.3c-5.4,2.5-11.9,0.2-14.4-5.3l0,0c-2.5-5.4-0.2-11.9,5.3-14.4
									L616.1,337.8z"/>
							</g>
							
								<rect x="808.7" y="233.3" transform="matrix(0.9079 -0.4191 0.4191 0.9079 -29.5573 368.2333)" class="st6" width="29.4" height="36.2"/>
						</g>
						<path class="st6" d="M825.9,244.3c74-25.3,153.2-6.3,242.2,58.3c13.5,9.8,29.5,24.9,47.9,42.4
							c47.3,44.9,106.2,100.7,157.7,97.2c19.7-1.4,36.6-11.2,51.8-30.1c49.4-61.8,34-145.8,20.5-219.9c-0.7-3.6-1.3-7.1-1.9-10.6
							c-1.2-6.5-2.4-13-3.7-19.6c-9.7-51.4-19.7-104.6-7.4-155.4c7.4-30.8,25.3-53.6,51.7-66c29.6-13.8,67.4-12.3,101,4.3
							c35.8,17.7,64.9,50.6,84,95.4c16,37.4,24.7,82.1,24.6,125.9c-0.3,71.8-15,143.2-29.3,212.1l-0.7,3.5
							c-0.9,4.5-1.9,9.1-2.9,13.6c-12.5,59.6-25.5,121.2-0.6,178.5c20.3,46.4,60.2,67,90.9,66.8l0.1,9.1
							c-20.7,0.1-41.3-7.3-59.6-21.3c-16.8-12.9-30.8-31-39.5-50.9c-26.1-59.9-12.8-123,0-184c1-4.5,1.9-9.1,2.9-13.6l0.7-3.5
							c14.2-68.6,28.9-139.5,29.1-210.3c0.2-42.6-8.3-86.1-23.9-122.4c-18.3-42.7-45.9-74.1-79.8-90.8c-31.2-15.4-66-16.9-93.2-4.2
							c-23.8,11.1-40,31.9-46.8,59.9c-11.9,49-2,101.2,7.5,151.6c1.3,6.6,2.5,13.2,3.7,19.7c0.7,3.5,1.3,7,1.9,10.6
							c13.9,76,29.7,162.1-22.3,227.2c-16.6,20.7-36.2,32-58.3,33.5c-55.5,3.8-116-53.6-164.6-99.7c-18.2-17.3-33.9-32.2-47-41.6
							c-86.4-62.7-162.9-81.3-233.9-57L825.9,244.3z"/>
					</g>
				</g>
			</g>
			<g>
				<defs>
					<rect id="SVGID_13_" x="-321" y="-64.2" width="1526.8" height="1030.6"/>
				</defs>
				<clipPath id="SVGID_14_">
					<use xlink:href="#SVGID_13_"  style="overflow:visible;"/>
				</clipPath>
				<g class="st10">
					<path class="st6" d="M427.3,506.3c0.9-2,2-3.7,3.5-5.2c1.5-1.5,3.2-2.6,5.2-3.5c2-0.9,4.1-1.3,6.4-1.3c2.3,0,4.4,0.4,6.4,1.3
						s3.7,2,5.2,3.5c1.5,1.5,2.6,3.2,3.5,5.2c0.9,2,1.3,4.1,1.3,6.4c0,2.3-0.4,4.4-1.3,6.4c-0.9,2-2,3.7-3.5,5.2
						c-1.5,1.5-3.2,2.6-5.2,3.5c-2,0.9-4.1,1.3-6.4,1.3c-2.3,0-4.4-0.4-6.4-1.3s-3.7-2-5.2-3.5c-1.5-1.5-2.6-3.2-3.5-5.2
						c-0.9-2-1.3-4.1-1.3-6.4C426,510.4,426.4,508.2,427.3,506.3z M466.4,248c0-9.4-1.8-16.4-5.3-21.1c-3.6-4.7-9.8-7-18.6-7
						c-8.8,0-15,2.3-18.6,7c-3.6,4.7-5.3,11.7-5.3,21.1v84.4l12.4,125.7v-0.3c0.6,4.2,2,7,4.3,8.6c2.3,1.5,4.7,2.3,7.3,2.3
						c2.5,0,4.9-0.8,7.2-2.2c2.2-1.5,3.7-4.3,4.2-8.3l12.6-125.7L466.4,248L466.4,248z"/>
				</g>
			</g>
		</g>
	</g>
	<g>
		<defs>
			<rect id="SVGID_15_" x="-321" y="-64.2" width="1526.8" height="1030.6"/>
		</defs>
		<clipPath id="SVGID_16_">
			<use xlink:href="#SVGID_15_"  style="overflow:visible;"/>
		</clipPath>
	</g>
</g>
</svg>
