<?xml version="1.0" encoding="utf-8"?>
<!-- Generator: Adobe Illustrator 24.3.0, SVG Export Plug-In . SVG Version: 6.00 Build 0)  -->
<svg version="1.1" id="_x34_04" xmlns="http://www.w3.org/2000/svg" xmlns:xlink="http://www.w3.org/1999/xlink" x="0px" y="0px"
	 viewBox="0 0 3000 1093" style="enable-background:new 0 0 3000 1093;" xml:space="preserve">
<style type="text/css">
	.st0{clip-path:url(#SVGID_2_);}
	.st1{opacity:0.14;clip-path:url(#SVGID_4_);fill:#6E6D6D;}
	.st2{clip-path:url(#SVGID_4_);}
	.st3{fill:#E9ECEF;}
	.st4{opacity:0.14;clip-path:url(#XMLID_9_);fill:#867AAA;}
	.st5{fill:#5C568F;}
	.st6{fill:#FFFFFF;}
	.st7{opacity:0.14;clip-path:url(#XMLID_10_);fill:#867AAA;}
	.st8{fill:#867AAA;}
	.st9{clip-path:url(#SVGID_2_);fill-rule:evenodd;clip-rule:evenodd;fill:#5C568F;}
</style>
<g>
	<defs>
		<rect id="SVGID_1_" y="-381" width="3000" height="2025"/>
	</defs>
	<clipPath id="SVGID_2_">
		<use xlink:href="#SVGID_1_"  style="overflow:visible;"/>
	</clipPath>
	<g class="st0">
		<defs>
			<rect id="SVGID_3_" y="-381" width="3000" height="2025"/>
		</defs>
		<clipPath id="SVGID_4_">
			<use xlink:href="#SVGID_3_"  style="overflow:visible;"/>
		</clipPath>
		<circle class="st1" cx="1520" cy="544.7" r="498.2"/>
		<g class="st2">
			<path class="st3" d="M1124.6,774.9l98.3-41.8l-50.6-119l-98.3,41.8l-2.5-5.8c-4.2-9.9-15.6-14.5-25.5-10.3l-18.9,8l-1.4-3.3
				c-1.6-3.9-6.1-5.6-9.9-4l-22.7,9.6c-3.9,1.6-5.6,6.1-4,9.9l1.4,3.3l-10.7,4.6l-1.4-3.3c-1.6-3.9-6.1-5.6-9.9-4l-22.7,9.6
				c-3.9,1.6-5.6,6.1-4,9.9l1.4,3.3L810,740.1c-9.9,4.2-14.5,15.6-10.3,25.5l12.5,29.3l-44.2,18.8l7.8,18.3
				C665.2,879.6,541,931.8,420.5,935.3c-51.6,1.5-151.7-17.6-242.5-162.1c-24.8-39.5-44.9-81.7-61.3-117.8c-2.8-6.3-5.6-13-8.5-20.1
				c-14.1-34.1-30-72.8-67.2-91.6c-53.2-26.8-100.6,3.3-138.8,27.5c-4.6,2.9-9.2,5.8-13.7,8.6c-12.2,7.4-24.7,15.5-36.8,23.3
				c-63.8,41.1-129.8,83.6-201.3,76.5c-64.6-6.4-122.2-49.1-154.2-114.2c-64-130.3-53.3-262.2,32.5-403
				C-395.9,38.3-276-71.7-170.2-168.7c16-14.7,31.1-28.5,45.9-42.3c30.1-28,64-61.3,85.7-103c24.7-47.4,28.6-98.4,10.9-139.7
				c-15.2-35.4-47.1-65.6-94.8-89.7c-77.1-39.1-159.3-55.5-244.2-48.9c-73.6,5.7-151.5,29-231.5,69.3
				c-143,72-270.7,184.4-387.4,295.2l-83,78.8l25.8,27.2l83-78.8C-845.2-309.5-720-419.8-581.4-489.6
				c75.6-38.1,148.8-60.1,217.5-65.4c78-6,153.5,9.1,224.4,45c39.6,20.1,65.6,44,77.3,71.1c13.1,30.5,9.5,70.7-9.7,107.6
				c-18.9,36.4-50.2,67-78,92.8c-14.7,13.7-29.8,27.5-45.7,42.1c-107.6,98.7-229.6,210.6-308,339.3
				c-43.5,71.5-68.5,139.4-76.5,207.8c-9,77.8,5.2,155.6,42.4,231.3c7.2,14.7,15.5,28.4,24.8,41c39.5,53.6,96.6,87.8,159.3,94
				c84.6,8.4,159.4-39.8,225.4-82.3c12.5-8,24.3-15.6,36.1-22.8c4.7-2.9,9.4-5.9,14.3-8.9c40.8-25.9,70-41.7,101.7-25.7
				c24.7,12.5,37.3,42.9,49.4,72.4c2.9,7.1,5.9,14.4,9.1,21.3c16.9,37.2,37.7,80.9,63.7,122.2c43.2,68.8,136.5,183.6,275.4,179.6
				c127.5-3.6,255.3-57.4,368.8-106.2l7.8,18.4l44.2-18.8l12.8,30.1c4.2,9.9,15.6,14.5,25.5,10.3l133.2-56.6l1.4,3.3
				c1.6,3.9,6.1,5.6,9.9,4l22.7-9.6c3.9-1.6,5.6-6.1,4-9.9l-1.4-3.3l10.7-4.6l1.4,3.3c1.6,3.9,6.1,5.6,9.9,4l22.7-9.6
				c3.9-1.6,5.6-6.1,4-9.9l-1.4-3.3l18.9-8c9.9-4.2,14.5-15.6,10.3-25.5L1124.6,774.9z"/>
			<g>
				<g>
					<g>
						<g>
							<g>
								<defs>
									<path id="XMLID_1_" d="M1068.2,796.4c1.6,3.9,6.1,5.6,9.9,4l22.7-9.6c3.9-1.6,5.6-6.1,4-9.9l-1.4-3.3l18.9-8
										c9.9-4.2,14.5-15.6,10.3-25.5L1077,613.4c-4.2-9.9-15.6-14.5-25.5-10.3l-18.9,8l-1.4-3.3c-1.6-3.9-6.1-5.6-9.9-4l-22.7,9.6
										c-3.9,1.6-5.6,6.1-4,9.9l1.4,3.3l-10.7,4.6l-1.4-3.3c-1.6-3.9-6.1-5.6-9.9-4l-22.7,9.6c-3.9,1.6-5.6,6.1-4,9.9l1.4,3.3
										l-133.2,56.6c-9.9,4.2-14.5,15.6-10.3,25.5l55.6,130.7c4.2,9.9,15.6,14.5,25.5,10.3l133.2-56.6l1.4,3.3
										c1.6,3.9,6.1,5.6,9.9,4l22.7-9.6c3.9-1.6,5.6-6.1,4-9.9l-1.4-3.3l10.7-4.6L1068.2,796.4z"/>
								</defs>
								<use xlink:href="#XMLID_1_"  style="overflow:visible;fill:#867AAA;"/>
								<clipPath id="XMLID_9_">
									<use xlink:href="#XMLID_1_"  style="overflow:visible;"/>
								</clipPath>
								<polyline class="st4" points="831,793.6 1123.6,670.2 1068.1,566.4 773.1,695.9 799.7,765.6 831,793.6 								"/>
							</g>
							
								<rect x="1089.3" y="604.4" transform="matrix(0.3913 0.9203 -0.9203 0.3913 1307.8015 -661.5276)" class="st5" width="129.3" height="106.8"/>
							<g>
								
									<rect x="1154.8" y="587.6" transform="matrix(0.3913 0.9203 -0.9203 0.3913 1261.8324 -705.845)" class="st6" width="19.3" height="26.5"/>
								
									<rect x="1167.4" y="617.3" transform="matrix(0.3913 0.9203 -0.9203 0.3913 1296.8201 -699.3918)" class="st6" width="19.3" height="26.5"/>
								
									<rect x="1180" y="647" transform="matrix(0.3913 0.9203 -0.9203 0.3913 1331.8143 -692.9378)" class="st6" width="19.3" height="26.5"/>
								
									<rect x="1192.6" y="676.6" transform="matrix(0.3913 0.9203 -0.9203 0.3913 1366.7769 -686.4874)" class="st6" width="19.3" height="26.5"/>
							</g>
						</g>
						
							<rect x="935.6" y="706.4" transform="matrix(0.3913 0.9203 -0.9203 0.3913 1279.9836 -510.6919)" class="st5" width="180.9" height="11.6"/>
					</g>
					
						<rect x="769.1" y="779.1" transform="matrix(0.3913 0.9203 -0.9203 0.3913 1232.5189 -253.352)" class="st5" width="77.4" height="51.7"/>
				</g>
				<path class="st5" d="M-511.9,588.7c-9.3-12.6-17.6-26.3-24.8-41c-37.1-75.6-51.4-153.4-42.4-231.3
					c7.9-68.4,32.9-136.4,76.5-207.8c78.4-128.7,200.4-240.6,308-339.3c16-14.6,31-28.4,45.7-42.1c27.8-25.8,59-56.5,78-92.8
					c19.2-36.8,22.8-77.1,9.7-107.6c-11.6-27.1-37.6-51-77.3-71.1c-70.9-35.9-146.4-51-224.4-45c-68.7,5.3-141.9,27.3-217.5,65.4
					c-138.6,69.8-263.8,180.1-378.4,288.9l-83,78.8l-25.8-27.2l83-78.8C-868-373-740.3-485.4-597.4-557.4
					c80-40.3,157.8-63.6,231.5-69.3c84.9-6.6,167.1,9.9,244.2,48.9C-74-553.6-42-523.4-26.8-488c17.8,41.4,13.8,92.3-10.9,139.7
					c-21.7,41.7-55.6,75-85.7,103c-14.8,13.8-29.9,27.6-45.9,42.3C-275.1-106-395,4-470.6,128.1c-85.8,140.9-96.4,272.7-32.5,403
					c32,65.1,89.6,107.8,154.2,114.2c71.6,7.1,137.5-35.4,201.3-76.5c12.1-7.8,24.6-15.9,36.8-23.3c4.5-2.8,9.1-5.7,13.7-8.6
					c38.1-24.2,85.6-54.4,138.8-27.5C79,528.2,94.9,566.9,109,601c2.9,7.1,5.7,13.8,8.5,20.1c16.4,36.1,36.5,78.3,61.3,117.8
					C269.7,883.4,369.8,902.5,421.4,901c123.7-3.5,251.4-58.5,364.1-107.1l16.3-7l14.8,34.5l-16.3,7
					c-115.8,49.9-246.9,106.4-377.9,110.1c-138.8,4-232.1-110.8-275.4-179.6c-26-41.3-46.8-85-63.7-122.2
					c-3.1-6.9-6.1-14.2-9.1-21.3c-12.1-29.4-24.7-59.9-49.4-72.4c-31.8-16-60.9-0.2-101.7,25.7c-4.8,3.1-9.6,6.1-14.3,8.9
					c-11.8,7.2-23.6,14.8-36.1,22.8c-66,42.5-140.8,90.7-225.4,82.3C-415.4,676.6-472.4,642.3-511.9,588.7z"/>
			</g>
		</g>
		<g class="st2">
			<path class="st3" d="M3876.2,1040.5c-60.2,0.3-138.8-40.1-178.6-131.3c-49.1-112.5-23.5-233.6,1.1-350.8
				c1.9-8.9,3.8-17.9,5.6-26.7l1.4-6.8c28-135.5,57-275.7,57.5-416.8c0.3-86.1-16.9-174-48.3-247.4
				c-37.6-87.9-94.7-152.6-165.1-187.4c-66.1-32.6-140.3-35.7-198.5-8.5c-51.8,24.3-87,69.1-101.6,129.6
				c-24.2,100-4.4,204.4,14.6,305.4c2.5,13,4.9,25.8,7.2,38.6c1.2,6.9,2.5,13.9,3.8,20.9c26.7,145.6,57,310.6-40.2,432.1
				c-29.7,37.2-63,56.5-101.8,59.2c-101.3,7-217-102.8-309.9-191c-36.2-34.4-67.5-64.1-94.1-83.3c-167.7-121.6-317.7-161-458-120.1
				l-11.5-24.8l-52.5,24.2l-10.6-23.1c-4-8.8-14.4-12.6-23.2-8.6l-134.3,62l-2.6-5.7c-2.1-4.5-7.5-6.5-12-4.4L1892.1,337
				c-4.5,2.1-6.5,7.5-4.4,12l2.6,5.7l-58.2,26.9c-8.8,4-12.6,14.4-8.6,23.2l17.5,37.8L1708,504.3c-10.7,4.9-15.4,17.6-10.4,28.3
				c4.9,10.7,17.6,15.4,28.3,10.4l133.1-61.7l17.7,38.3c4,8.8,14.4,12.6,23.2,8.6l58.2-26.9l2.6,5.7c2.1,4.5,7.5,6.5,12,4.4
				l132.5-61.2c4.5-2.1,6.5-7.5,4.4-12l-2.6-5.7l134.3-62c8.8-4,12.6-14.4,8.6-23.2l-8-17.2l-2.7-5.8l52.5-24.2l-12.8-27.8
				c134-38,278.2,0.7,440,118.2c25.6,18.6,56.5,47.9,92.3,81.8c95.5,90.6,214.3,203.3,323.4,195.8c43.4-3,81.9-25.1,114.5-65.8
				c102.2-127.8,71.2-297.1,43.8-446.4c-1.3-7-2.6-13.9-3.8-20.8c-2.3-12.8-4.8-25.7-7.2-38.7c-18.7-99.2-38.1-201.7-14.8-297.9
				c13.3-55.1,45.1-95.7,91.9-117.6c53.4-25,121.8-21.9,183.1,8.3c66.6,32.8,120.8,94.5,156.7,178.4
				c30.5,71.3,47.1,156.7,46.9,240.4c-0.5,139.3-29.3,278.6-57.1,413.3l-1.4,6.8c-1.8,8.9-3.7,17.7-5.6,26.7
				c-25.2,119.9-51.3,243.8,0,361.5c17.1,39.2,44.7,74.7,77.7,100.1c36,27.7,76.6,42.1,117.2,41.9L3876.2,1040.5z"/>
			<g>
				<g>
					<g>
						<g>
							<defs>
								<path id="XMLID_2_" d="M2196.7,198.5l53.1,115c4,8.8,0.2,19.2-8.6,23.2l-341.4,157.6c-8.8,4-19.2,0.2-23.2-8.6l-53.1-115
									c-4-8.8-0.2-19.2,8.6-23.2l341.4-157.6C2182.3,185.9,2192.7,189.7,2196.7,198.5z"/>
							</defs>
							<use xlink:href="#XMLID_2_"  style="overflow:visible;fill:#867AAA;"/>
							<clipPath id="XMLID_10_">
								<use xlink:href="#XMLID_2_"  style="overflow:visible;"/>
							</clipPath>
							<polygon class="st7" points="2229.6,256 1825.9,437.7 1793.1,336.9 1936.4,230 2210.8,154.7 							"/>
						</g>
						<path class="st8" d="M2036.7,246.2l73,158.1c2.1,4.5,0.1,9.9-4.4,12l-132.5,61.2c-4.5,2.1-9.9,0.1-12-4.4l-73-158.1
							c-2.1-4.5-0.1-9.9,4.4-12l132.5-61.2C2029.2,239.7,2034.6,241.7,2036.7,246.2z"/>
						<g>
							<path class="st5" d="M2093.3,397.6L2093.3,397.6c1.5,3.3,0.1,7.1-3.2,8.6L1975,459.4c-3.3,1.5-7.1,0.1-8.6-3.2v0
								c-1.5-3.3-0.1-7.1,3.2-8.6l115.1-53.1C2087.9,392.9,2091.8,394.3,2093.3,397.6z"/>
							<path class="st5" d="M2080.9,370.7L2080.9,370.7c1.5,3.3,0.1,7.1-3.2,8.6l-115.1,53.1c-3.3,1.5-7.1,0.1-8.6-3.2l0,0
								c-1.5-3.3-0.1-7.1,3.2-8.6l115.1-53.1C2075.5,366,2079.4,367.4,2080.9,370.7z"/>
							<path class="st5" d="M2068.5,343.8L2068.5,343.8c1.5,3.3,0.1,7.1-3.2,8.6l-115.1,53.1c-3.3,1.5-7.1,0.1-8.6-3.2l0,0
								c-1.5-3.3-0.1-7.1,3.2-8.6l115.1-53.1C2063.1,339.1,2067,340.5,2068.5,343.8z"/>
							<path class="st5" d="M2056,316.9L2056,316.9c1.5,3.3,0.1,7.1-3.2,8.6l-115.1,53.1c-3.3,1.5-7.1,0.1-8.6-3.2l0,0
								c-1.5-3.3-0.1-7.1,3.2-8.6l115.1-53.1C2050.7,312.2,2054.5,313.6,2056,316.9z"/>
							<path class="st5" d="M2043.6,289.9L2043.6,289.9c1.5,3.3,0.1,7.1-3.2,8.6l-115.1,53.1c-3.3,1.5-7.1,0.1-8.6-3.2l0,0
								c-1.5-3.3-0.1-7.1,3.2-8.6l115.1-53.1C2038.2,285.3,2042.1,286.7,2043.6,289.9z"/>
							<path class="st5" d="M2031.2,263L2031.2,263c1.5,3.3,0.1,7.1-3.2,8.6l-115.1,53.1c-3.3,1.5-7.1,0.1-8.6-3.2l0,0
								c-1.5-3.3-0.1-7.1,3.2-8.6l115.1-53.1C2025.8,258.3,2029.7,259.8,2031.2,263z"/>
						</g>
						<path class="st5" d="M1841.2,408.9l17.9,38.7l-133.2,61.5c-10.7,4.9-23.4,0.3-28.3-10.4l0,0c-4.9-10.7-0.3-23.4,10.4-28.3
							L1841.2,408.9z"/>
					</g>
					
						<rect x="2213" y="210.1" transform="matrix(-0.4191 -0.9079 0.9079 -0.4191 2973.8845 2380.7905)" class="st5" width="71.2" height="57.8"/>
				</g>
				<path class="st5" d="M2253.5,225.1c145.4-49.8,301-12.4,475.8,114.5c26.6,19.3,57.9,49,94.1,83.3
					c92.9,88.2,208.6,197.9,309.9,191c38.8-2.7,72-22,101.8-59.2c97.1-121.5,66.9-286.5,40.2-432.1c-1.3-7-2.6-14-3.8-20.9
					c-2.3-12.7-4.7-25.6-7.2-38.6c-19.1-101-38.8-205.5-14.6-305.4c14.6-60.5,49.8-105.3,101.6-129.6
					c58.2-27.2,132.4-24.1,198.5,8.5c70.4,34.7,127.6,99.5,165.1,187.4c31.4,73.5,48.6,161.3,48.3,247.4
					c-0.5,141.1-29.5,281.3-57.5,416.8l-1.4,6.8c-1.8,8.9-3.7,17.8-5.6,26.7c-24.6,117.1-50.2,238.2-1.1,350.8
					c39.8,91.2,118.3,131.7,178.6,131.3l0.1,17.8c-40.7,0.2-81.2-14.3-117.2-41.9c-33-25.4-60.6-60.9-77.7-100.1
					c-51.3-117.7-25.2-241.7,0-361.5c1.9-8.9,3.8-17.8,5.6-26.7l1.4-6.8c27.9-134.7,56.7-274,57.1-413.3
					c0.3-83.7-16.4-169.1-46.9-240.4c-35.9-83.9-90.1-145.6-156.7-178.4c-61.3-30.2-129.7-33.3-183.1-8.3
					c-46.8,21.9-78.5,62.6-91.9,117.6c-23.3,96.2-3.9,198.8,14.8,297.9c2.5,13,4.9,25.9,7.2,38.7c1.3,6.9,2.5,13.8,3.8,20.8
					c27.4,149.3,58.4,318.6-43.8,446.4c-32.6,40.7-71.1,62.9-114.5,65.8c-109.1,7.5-227.9-105.3-323.4-195.8
					c-35.8-33.9-66.7-63.3-92.3-81.8c-169.8-123.2-320.1-159.8-459.6-112L2253.5,225.1z"/>
			</g>
		</g>
		<g class="st2">
			<path class="st5" d="M1470.2,739.9c1.7-3.9,4-7.3,6.9-10.3c2.9-2.9,6.3-5.2,10.3-6.9c3.9-1.7,8.1-2.5,12.6-2.5s8.7,0.8,12.6,2.5
				c3.9,1.7,7.3,4,10.3,6.9c2.9,2.9,5.2,6.3,6.9,10.3c1.7,3.9,2.5,8.1,2.5,12.6c0,4.5-0.8,8.7-2.5,12.6c-1.7,3.9-4,7.3-6.9,10.3
				c-2.9,2.9-6.3,5.2-10.3,6.9c-3.9,1.7-8.1,2.5-12.6,2.5s-8.7-0.8-12.6-2.5c-3.9-1.7-7.3-4-10.3-6.9c-2.9-2.9-5.2-6.3-6.9-10.3
				c-1.7-3.9-2.5-8.1-2.5-12.6C1467.7,748,1468.5,743.8,1470.2,739.9z M1547.1,232.5c0-18.4-3.5-32.2-10.5-41.4
				c-7-9.2-19.2-13.8-36.5-13.8c-17.3,0-29.5,4.6-36.5,13.8c-7,9.2-10.5,23-10.5,41.4v165.8l24.3,247v-0.6
				c1.1,8.2,3.9,13.8,8.4,16.9c4.5,3,9.3,4.5,14.3,4.5c5,0,9.7-1.5,14.1-4.4c4.4-2.9,7.2-8.4,8.3-16.4l24.7-247V232.5z"/>
		</g>
	</g>
	<circle class="st9" cx="2259.2" cy="-317.4" r="26.9"/>
</g>
</svg>
