<?xml version="1.0" encoding="utf-8"?>
<!-- Generator: Adobe Illustrator 24.3.0, SVG Export Plug-In . SVG Version: 6.00 Build 0)  -->
<svg version="1.1" id="Capa_1" xmlns="http://www.w3.org/2000/svg" xmlns:xlink="http://www.w3.org/1999/xlink" x="0px" y="0px"
	 viewBox="0 0 1984.3 1984.3" style="enable-background:new 0 0 1984.3 1984.3;" xml:space="preserve">
<style type="text/css">
	.st0{fill:url(#SVGID_1_);}
	.st1{fill:url(#SVGID_2_);stroke:url(#SVGID_3_);stroke-width:17;stroke-miterlimit:10;}
	.st2{fill:url(#SVGID_4_);stroke:url(#SVGID_5_);stroke-width:17;stroke-miterlimit:10;}
	.st3{fill:url(#SVGID_6_);stroke:url(#SVGID_7_);stroke-width:17;stroke-miterlimit:10;}
	.st4{fill:url(#SVGID_8_);stroke:url(#SVGID_9_);stroke-width:17;stroke-miterlimit:10;}
	.st5{fill:url(#SVGID_10_);stroke:url(#SVGID_11_);stroke-width:17;stroke-miterlimit:10;}
	.st6{fill:url(#SVGID_12_);stroke:url(#SVGID_13_);stroke-width:17;stroke-miterlimit:10;}
	.st7{fill:url(#SVGID_14_);stroke:url(#SVGID_15_);stroke-width:17;stroke-miterlimit:10;}
	.st8{fill-rule:evenodd;clip-rule:evenodd;fill:#9D83E9;}
	.st9{fill:url(#SVGID_16_);}
	.st10{fill:url(#SVGID_17_);stroke:url(#SVGID_18_);stroke-width:16;stroke-miterlimit:10;}
	.st11{fill:url(#SVGID_19_);stroke:url(#SVGID_20_);stroke-width:17;stroke-miterlimit:10;}
	.st12{fill:#5A3991;}
</style>
<linearGradient id="SVGID_1_" gradientUnits="userSpaceOnUse" x1="-863.7" y1="2158.7898" x2="-345.3" y2="2158.7898" gradientTransform="matrix(1 0 0 -1 0 2547.8899)">
	<stop  offset="0" style="stop-color:#FFFFFF"/>
	<stop  offset="0" style="stop-color:#56358C"/>
	<stop  offset="0.2039" style="stop-color:#6C4F9C"/>
	<stop  offset="0.6844" style="stop-color:#9883BC"/>
	<stop  offset="1" style="stop-color:#FFFFFF"/>
</linearGradient>
<ellipse class="st0" cx="-604.5" cy="389.1" rx="259.2" ry="278.6"/>
<g>
	
		<linearGradient id="SVGID_2_" gradientUnits="userSpaceOnUse" x1="-5933.7236" y1="4678.1172" x2="10784.9805" y2="-3329.6697" gradientTransform="matrix(1 0 0 1 0 565.9999)">
		<stop  offset="5.586592e-03" style="stop-color:#56358C"/>
		<stop  offset="0.4246" style="stop-color:#6C4F9C"/>
		<stop  offset="0.8352" style="stop-color:#8E76B4"/>
		<stop  offset="1" style="stop-color:#FFFFFF"/>
	</linearGradient>
	
		<linearGradient id="SVGID_3_" gradientUnits="userSpaceOnUse" x1="5342.125" y1="-778.7749" x2="5655.751" y2="-778.7749" gradientTransform="matrix(1 0 0 1 0 565.9999)">
		<stop  offset="5.586592e-03" style="stop-color:#56358C"/>
		<stop  offset="0.4246" style="stop-color:#6C4F9C"/>
		<stop  offset="0.8352" style="stop-color:#8E76B4"/>
		<stop  offset="1" style="stop-color:#FFFFFF"/>
	</linearGradient>
	<path class="st1" d="M5359.7-259c-12.1,12.2-12.1,31.8,0,44c38.4,38.4,88.8,57.6,139.2,57.6c50.4,0,100.8-19.2,139.2-57.6
		c12.2-12.2,12.2-31.8,0-44c-12.2-12.2-31.9-12.2-44,0c-52.5,52.5-137.9,52.5-190.4,0C5391.5-271.2,5371.8-271.2,5359.7-259z"/>
	
		<linearGradient id="SVGID_4_" gradientUnits="userSpaceOnUse" x1="-6055.8442" y1="4422.5981" x2="10662.5645" y2="-3585.0459" gradientTransform="matrix(1 0 0 1 0 565.9999)">
		<stop  offset="5.586592e-03" style="stop-color:#56358C"/>
		<stop  offset="0.4246" style="stop-color:#6C4F9C"/>
		<stop  offset="0.8352" style="stop-color:#8E76B4"/>
		<stop  offset="1" style="stop-color:#FFFFFF"/>
	</linearGradient>
	
		<linearGradient id="SVGID_5_" gradientUnits="userSpaceOnUse" x1="5576.3506" y1="-1213.225" x2="5797.0757" y2="-1213.225" gradientTransform="matrix(1 0 0 1 0 565.9999)">
		<stop  offset="5.586592e-03" style="stop-color:#56358C"/>
		<stop  offset="0.4246" style="stop-color:#6C4F9C"/>
		<stop  offset="0.8352" style="stop-color:#8E76B4"/>
		<stop  offset="1" style="stop-color:#FFFFFF"/>
	</linearGradient>
	<path class="st2" d="M5638.1-610.6c13-13,30.3-20.2,48.7-20.2c18.4,0,35.7,7.2,48.7,20.2c6.1,6.1,14,9.1,22,9.1s15.9-3,22-9.1
		c12.1-12.2,12.1-31.8,0-44c-24.8-24.8-57.7-38.4-92.8-38.4c-35,0-68,13.7-92.7,38.4c-12.2,12.2-12.2,31.9,0,44
		C5606.2-598.4,5625.9-598.4,5638.1-610.6z"/>
	
		<linearGradient id="SVGID_6_" gradientUnits="userSpaceOnUse" x1="-6126.2354" y1="4276.2773" x2="10592.5225" y2="-3731.5327" gradientTransform="matrix(1 0 0 1 0 565.9999)">
		<stop  offset="5.586592e-03" style="stop-color:#56358C"/>
		<stop  offset="0.4246" style="stop-color:#6C4F9C"/>
		<stop  offset="0.8352" style="stop-color:#8E76B4"/>
		<stop  offset="1" style="stop-color:#FFFFFF"/>
	</linearGradient>
	
		<linearGradient id="SVGID_7_" gradientUnits="userSpaceOnUse" x1="5200.4502" y1="-1213.225" x2="5421.1758" y2="-1213.225" gradientTransform="matrix(1 0 0 1 0 565.9999)">
		<stop  offset="5.586592e-03" style="stop-color:#56358C"/>
		<stop  offset="0.4246" style="stop-color:#6C4F9C"/>
		<stop  offset="0.8352" style="stop-color:#8E76B4"/>
		<stop  offset="1" style="stop-color:#FFFFFF"/>
	</linearGradient>
	<path class="st3" d="M5262.2-610.6c13-13,30.3-20.2,48.7-20.2c18.4,0,35.7,7.2,48.7,20.2c6.1,6.1,14,9.1,22,9.1s15.9-3,22-9.1
		c12.1-12.2,12.1-31.8,0-44c-24.8-24.8-57.7-38.4-92.8-38.4c-35,0-67.9,13.7-92.7,38.4c-12.2,12.2-12.2,31.9,0,44
		C5230.3-598.4,5250-598.4,5262.2-610.6z"/>
	
		<linearGradient id="SVGID_8_" gradientUnits="userSpaceOnUse" x1="-6075.9243" y1="4381.1079" x2="10642.7285" y2="-3626.6531" gradientTransform="matrix(1 0 0 1 0 565.9999)">
		<stop  offset="5.586592e-03" style="stop-color:#56358C"/>
		<stop  offset="0.4246" style="stop-color:#6C4F9C"/>
		<stop  offset="0.8352" style="stop-color:#8E76B4"/>
		<stop  offset="1" style="stop-color:#FFFFFF"/>
	</linearGradient>
	
		<linearGradient id="SVGID_9_" gradientUnits="userSpaceOnUse" x1="4153.6445" y1="-1006.2144" x2="6006.3999" y2="-1006.2144" gradientTransform="matrix(1 0 0 1 0 565.9999)">
		<stop  offset="5.586592e-03" style="stop-color:#56358C"/>
		<stop  offset="0.4246" style="stop-color:#6C4F9C"/>
		<stop  offset="0.8352" style="stop-color:#8E76B4"/>
		<stop  offset="1" style="stop-color:#FFFFFF"/>
	</linearGradient>
	<path class="st4" d="M4938.4,137.2c28,5.2,54.6,7.8,79.8,7.8c66.6,0,123.3-18.1,169.2-54.3c40-31.5,68.7-74.5,85.8-128.1
		c0.4,0.5,0.8,0.9,1.2,1.4c68.4,78,143.9,117.6,224.4,117.6S5654.8,42,5723.2-36c57-65,108.2-155.6,152.3-269.3
		c84.6-218.2,122.4-471.4,122.4-625.6c0-17.2-13.9-31.1-31.1-31.1h-936.1c-12,0-22.4,6.8-27.6,16.8c-16.8-24.7-33.6-47.7-49.9-68.4
		c-5.1-6.5-12.6-10.7-20.8-11.6c-8.2-1-16.4,1.3-22.9,6.4L4174-439.7c-13.5,10.6-15.8,30.2-5.2,43.7
		c95.4,121.1,281.8,296.6,483.2,415.7C4757.1,81.9,4853.4,121.4,4938.4,137.2z M5935.3-899.8c-4.6,149.8-41.5,375.4-117.7,572
		c-50.2,129.6-158.5,347.1-318.7,347.1s-268.5-217.5-318.7-347.1C5104-524.4,5067-750,5062.4-899.8H5935.3z M4237.4-410.3l685.9-540
		c26.7,36,54.3,77.8,81,122.5c12.4,150.8,50.1,347.9,117.8,522.5c30.8,79.5,65.1,147.6,102.4,203.6C5214.4-38,5189,10.3,5149,41.8
		c-125.9,99.1-345.5-4.8-465.2-75.6C4502.3-141.1,4333.7-295.4,4237.4-410.3z"/>
	
		<linearGradient id="SVGID_10_" gradientUnits="userSpaceOnUse" x1="-6006.0869" y1="4527.0796" x2="10712.6406" y2="-3480.7168" gradientTransform="matrix(1 0 0 1 0 565.9999)">
		<stop  offset="5.586592e-03" style="stop-color:#56358C"/>
		<stop  offset="0.4246" style="stop-color:#6C4F9C"/>
		<stop  offset="0.8352" style="stop-color:#8E76B4"/>
		<stop  offset="1" style="stop-color:#FFFFFF"/>
	</linearGradient>
	
		<linearGradient id="SVGID_11_" gradientUnits="userSpaceOnUse" x1="4858.6851" y1="-726.2009" x2="5122.1167" y2="-726.2009" gradientTransform="matrix(1 0 0 1 0 565.9999)">
		<stop  offset="5.586592e-03" style="stop-color:#56358C"/>
		<stop  offset="0.4246" style="stop-color:#6C4F9C"/>
		<stop  offset="0.8352" style="stop-color:#8E76B4"/>
		<stop  offset="1" style="stop-color:#FFFFFF"/>
	</linearGradient>
	<path class="st5" d="M4867.4-90.8c-2,17.1,10.2,32.5,27.2,34.6c1.2,0.1,2.5,0.2,3.7,0.2c15.5,0,29-11.6,30.9-27.4
		c4.3-35.7,22.1-67.7,50.4-89.9c28.2-22.2,63.5-32.1,99.2-27.9c17.1,2,32.5-10.2,34.6-27.2c2-17-10.1-32.5-27.2-34.6
		c-52.2-6.2-103.7,8.3-145,40.8C4899.8-189.7,4873.6-143,4867.4-90.8z"/>
	
		<linearGradient id="SVGID_12_" gradientUnits="userSpaceOnUse" x1="-6146.1577" y1="4234.7085" x2="10572.6436" y2="-3773.1235" gradientTransform="matrix(1 0 0 1 0 565.9999)">
		<stop  offset="5.586592e-03" style="stop-color:#56358C"/>
		<stop  offset="0.4246" style="stop-color:#6C4F9C"/>
		<stop  offset="0.8352" style="stop-color:#8E76B4"/>
		<stop  offset="1" style="stop-color:#FFFFFF"/>
	</linearGradient>
	
		<linearGradient id="SVGID_13_" gradientUnits="userSpaceOnUse" x1="4502.7837" y1="-919.7573" x2="4693.2148" y2="-919.7573" gradientTransform="matrix(1 0 0 1 0 565.9999)">
		<stop  offset="5.586592e-03" style="stop-color:#56358C"/>
		<stop  offset="0.4246" style="stop-color:#6C4F9C"/>
		<stop  offset="0.8352" style="stop-color:#8E76B4"/>
		<stop  offset="1" style="stop-color:#FFFFFF"/>
	</linearGradient>
	<path class="st6" d="M4657.3-428.8c-17.1-2-32.5,10.2-34.6,27.2c-2.2,18.3-11.3,34.7-25.8,46.1s-32.5,16.4-50.8,14.3
		c-17.1-2-32.5,10.1-34.6,27.2c-2,17.1,10.1,32.5,27.2,34.6c5.3,0.6,10.5,0.9,15.8,0.9c29.3,0,57.5-9.7,80.9-28.1
		c27.5-21.7,44.9-52.8,49.1-87.6C4686.5-411.3,4674.3-426.7,4657.3-428.8z"/>
	
		<linearGradient id="SVGID_14_" gradientUnits="userSpaceOnUse" x1="-6181.623" y1="4160.4873" x2="10537.0498" y2="-3847.2827" gradientTransform="matrix(1 0 0 1 0 565.9999)">
		<stop  offset="5.586592e-03" style="stop-color:#56358C"/>
		<stop  offset="0.4246" style="stop-color:#6C4F9C"/>
		<stop  offset="0.8352" style="stop-color:#8E76B4"/>
		<stop  offset="1" style="stop-color:#FFFFFF"/>
	</linearGradient>
	
		<linearGradient id="SVGID_15_" gradientUnits="userSpaceOnUse" x1="4798.085" y1="-1152.3573" x2="4988.5166" y2="-1152.3573" gradientTransform="matrix(1 0 0 1 0 565.9999)">
		<stop  offset="5.586592e-03" style="stop-color:#56358C"/>
		<stop  offset="0.4246" style="stop-color:#6C4F9C"/>
		<stop  offset="0.8352" style="stop-color:#8E76B4"/>
		<stop  offset="1" style="stop-color:#FFFFFF"/>
	</linearGradient>
	<path class="st7" d="M4834-512c5.2,0.6,10.4,0.9,15.6,0.9c65.5,0,122.2-49.1,130.2-115.7c2-17.1-10.1-32.5-27.2-34.6
		c-17-2-32.5,10.2-34.6,27.2c-4.5,37.8-38.9,64.8-76.6,60.3c-17.1-2-32.5,10.2-34.6,27.2C4804.8-529.5,4817-514,4834-512z"/>
</g>
<g>
	<path class="st8" d="M1152.4,599.4H838.2L890.4,423l216.1-6.3l52.2,182.7H1152.4z M595,1306.1c-44.9-116.9-44.9-235.9,0-352.8
		c39.7-105.4,125.3-190,229.6-235.9c52.2-19.9,111.7-32.4,170.1-32.4c59.5,0,111.7,12.5,171.2,32.4
		c104.4,45.9,182.7,130.5,228.6,235.9c45.9,116.9,45.9,235.9,0,352.8c-45.9,105.4-124.2,190-228.6,235.9
		c-111.7,45.9-229.7,45.9-341.4,0C720.3,1496,634.7,1411.5,595,1306.1L595,1306.1z M254.7,599.4c-52.2,7.3-91.9,52.2-91.9,98.1
		v858.1c0,58.5,45.9,104.4,98.1,104.4h1461.5c59.5,0,104.4-45.9,104.4-104.4V697.5c0-52.2-44.9-98.1-104.4-98.1
		c-6.3-32.4-6.3-78.3-26.1-98.1c-6.3-6.3-19.8-6.3-33.4-6.3h-294.4c-45.9,0-45.9,58.4-58.4,104.4h-33.4l-72-254.7
		c-6.3-26.1-26.1-45.9-52.2-45.9L850.8,305c-26.1,0-45.9,13.6-58.4,39.6l-72,254.7H254.7V599.4z M1192.1,933.4
		c-203.6-202.5-537.6-19.9-485.4,262c52.2,254.7,373.7,326.7,517.8,104.4C1302.8,1189.2,1290.2,1031.5,1192.1,933.4L1192.1,933.4z"
		/>
</g>
<linearGradient id="SVGID_16_" gradientUnits="userSpaceOnUse" x1="3257.1001" y1="195.6501" x2="4289.4004" y2="195.6501" gradientTransform="matrix(1 0 0 1 0 565.9999)">
	<stop  offset="5.586592e-03" style="stop-color:#56358C"/>
	<stop  offset="0.4246" style="stop-color:#6C4F9C"/>
	<stop  offset="0.8352" style="stop-color:#8E76B4"/>
	<stop  offset="1" style="stop-color:#FFFFFF"/>
</linearGradient>
<rect x="3257.1" y="511.3" class="st9" width="1032.3" height="500.7"/>
<g>
	
		<linearGradient id="SVGID_17_" gradientUnits="userSpaceOnUse" x1="-10214.7295" y1="-5754.8716" x2="6321.8545" y2="2165.6824" gradientTransform="matrix(1 0 0 -1 0 2547.8899)">
		<stop  offset="5.586592e-03" style="stop-color:#56358C"/>
		<stop  offset="0.4246" style="stop-color:#6C4F9C"/>
		<stop  offset="0.8352" style="stop-color:#8E76B4"/>
		<stop  offset="1" style="stop-color:#FFFFFF"/>
	</linearGradient>
	
		<linearGradient id="SVGID_18_" gradientUnits="userSpaceOnUse" x1="3040.4958" y1="1033.7001" x2="4519.3032" y2="1033.7001" gradientTransform="matrix(1 0 0 1 0 565.9999)">
		<stop  offset="5.586592e-03" style="stop-color:#56358C"/>
		<stop  offset="0.4246" style="stop-color:#6C4F9C"/>
		<stop  offset="0.8352" style="stop-color:#8E76B4"/>
		<stop  offset="1" style="stop-color:#FFFFFF"/>
	</linearGradient>
	<path class="st10" d="M4502.3,1129c12-12,12-31.5,0-43.5s-31.5-12-43.5,0c-21,21-61.7,55.6-129.6,90.7l-0.1,0.1
		c-28,14.5-60.5,29-98.2,42.8c-129.3,47.2-281.1,71.1-451,71.1c-243.1,0-430.5-53.2-553.9-117.3c-1.8-1.2-3.7-2.1-5.6-2.9
		c-51.5-27.4-91.6-56.6-119.4-84.4c-12-12-31.5-12-43.5,0s-12,31.5,0,43.5c22.2,22.2,65,58.6,136,96.1l532.9,374.5l-664.8,467.2
		c-13.9,9.8-17.3,29-7.5,42.9c6,8.5,15.5,13.1,25.2,13.1c6.1,0,12.3-1.8,17.7-5.6l682.9-479.9l682.9,479.9
		c5.4,3.8,11.6,5.6,17.7,5.6c9.7,0,19.2-4.6,25.2-13.1c9.8-13.9,6.4-33.1-7.5-42.9l-664.8-467.2l526.9-370.3
		C4433.9,1190.8,4478.9,1152.5,4502.3,1129z M3779.9,1562L3422,1310.5c109.3,27.4,229.2,41.2,357.9,41.2
		c128.8,0,248-13.3,355.7-39.7L3779.9,1562z"/>
	
		<linearGradient id="SVGID_19_" gradientUnits="userSpaceOnUse" x1="-10557.8418" y1="-5040.7544" x2="5978.7754" y2="2879.8157" gradientTransform="matrix(1 0 0 -1 0 2547.8899)">
		<stop  offset="5.586592e-03" style="stop-color:#56358C"/>
		<stop  offset="0.4246" style="stop-color:#6C4F9C"/>
		<stop  offset="0.8352" style="stop-color:#8E76B4"/>
		<stop  offset="1" style="stop-color:#FFFFFF"/>
	</linearGradient>
	
		<linearGradient id="SVGID_20_" gradientUnits="userSpaceOnUse" x1="3247.5" y1="155.8" x2="4310.0996" y2="155.8" gradientTransform="matrix(1 0 0 1 0 565.9999)">
		<stop  offset="5.586592e-03" style="stop-color:#56358C"/>
		<stop  offset="0.4246" style="stop-color:#6C4F9C"/>
		<stop  offset="0.8352" style="stop-color:#8E76B4"/>
		<stop  offset="1" style="stop-color:#FFFFFF"/>
	</linearGradient>
	<path class="st11" d="M3286.8,305.5c-17,0-30.8,13.8-30.8,30.8v123.4c0,0.1,0,0.2,0,0.3v647.3c0,17,13.8,30.8,30.8,30.8
		s30.8-13.8,30.8-30.8v-104.2c136.3,46.8,291.3,70.5,461.2,70.5c171.6,0,326.6-23.2,461.2-69.2v102.9c0,17,13.8,30.8,30.8,30.8
		s30.8-13.8,30.8-30.8v-771c0-17-13.8-30.8-30.8-30.8s-30.8,13.8-30.8,30.8v111.8c-6.5-2.3-13.8-2.5-20.8,0.1
		c-125.9,45.9-274.1,69.2-440.4,69.2c-211.9,0-365.3-41-461.2-78.5V336.3C3317.6,319.3,3303.8,305.5,3286.8,305.5z M3778.8,579
		c173.4,0,328.6-24.5,461.2-72.8v433c-132.7,48.3-287.8,72.8-461.2,72.8c-171.5,0-326.6-25-461.2-74.2V504.7
		C3419.5,541.7,3573.2,579,3778.8,579z"/>
</g>
<rect x="864.6" y="-546" class="st12" width="91" height="124"/>
</svg>
