<?xml version="1.0" encoding="utf-8"?>
<!-- Generator: Adobe Illustrator 24.3.0, SVG Export Plug-In . SVG Version: 6.00 Build 0)  -->
<svg version="1.1" id="Capa_1" xmlns="http://www.w3.org/2000/svg" xmlns:xlink="http://www.w3.org/1999/xlink" x="0px" y="0px"
	 viewBox="0 0 29.2 28.5" style="enable-background:new 0 0 29.2 28.5;" xml:space="preserve">
<style type="text/css">
	.st0{fill:#6D6C6C;}
</style>
<g id="XMLID_2392_">
	<g id="XMLID_2393_">
		<path id="XMLID_2398_" class="st0" d="M14.4,3.2c3.5,0,3.9,0,5.2,0.1s2,0.3,2.4,0.5c0.6,0.2,1,0.5,1.5,1s0.7,0.9,1,1.5
			c0.2,0.5,0.4,1.2,0.5,2.4c0.1,1.4,0.1,1.8,0.1,5.2s0,3.9-0.1,5.3c-0.1,1.3-0.3,2-0.5,2.4c-0.2,0.6-0.5,1-1,1.5s-0.9,0.7-1.5,1
			c-0.5,0.2-1.1,0.4-2.4,0.5c-1.4,0.1-1.8,0.1-5.2,0.1s-3.9,0-5.2-0.1s-2-0.3-2.4-0.4c-0.6-0.2-1-0.5-1.5-1c-0.4-0.5-0.7-0.9-1-1.5
			c-0.2-0.5-0.4-1.1-0.5-2.4c-0.1-1.4-0.1-1.8-0.1-5.2s0-3.9,0.1-5.2s0.3-2,0.5-2.4c0.2-0.6,0.5-1,1-1.5s0.9-0.7,1.5-1
			C7.3,3.8,8,3.6,9.2,3.5C10.6,3.2,11,3.2,14.4,3.2 M14.4,0.9c-3.5,0-4,0-5.4,0.1C7.7,1,6.8,1.2,5.9,1.5C5.1,1.9,4.3,2.3,3.6,3
			S2.5,4.5,2.1,5.3C1.8,6.2,1.6,7.1,1.5,8.5s-0.1,1.8-0.1,5.4s0,4,0.1,5.4s0.3,2.3,0.6,3.2c0.3,0.9,0.8,1.6,1.5,2.3S5,26,5.9,26.3
			c0.8,0.3,1.8,0.5,3.2,0.6s1.8,0.1,5.4,0.1s4,0,5.4-0.1s2.3-0.3,3.2-0.6c0.9-0.3,1.6-0.8,2.3-1.5s1.2-1.5,1.5-2.3s0.5-1.8,0.6-3.2
			s0.1-1.8,0.1-5.4s0-4-0.1-5.4s-0.3-2.3-0.6-3.2c-0.3-0.8-0.8-1.6-1.5-2.3S23.8,1.9,23,1.6C22.1,1.2,21.2,1,19.8,1
			C18.4,0.9,18,0.9,14.4,0.9"/>
		<path id="XMLID_2395_" class="st0" d="M14.4,7.2c-3.7,0-6.7,3-6.7,6.7s3,6.7,6.7,6.7s6.7-3,6.7-6.7S18.1,7.2,14.4,7.2 M14.4,18.2
			c-2.4,0-4.3-1.9-4.3-4.3s1.9-4.3,4.3-4.3s4.3,1.9,4.3,4.3C18.8,16.3,16.8,18.2,14.4,18.2"/>
		<path id="XMLID_2394_" class="st0" d="M22.9,6.9c0,0.9-0.7,1.6-1.6,1.6s-1.6-0.7-1.6-1.6s0.7-1.6,1.6-1.6S22.9,6.1,22.9,6.9"/>
	</g>
</g>
</svg>
