<?xml version="1.0" encoding="utf-8"?>
<!-- Generator: Adobe Illustrator 24.3.0, SVG Export Plug-In . SVG Version: 6.00 Build 0)  -->
<svg version="1.1" id="Capa_1" xmlns="http://www.w3.org/2000/svg" xmlns:xlink="http://www.w3.org/1999/xlink" x="0px" y="0px"
	 viewBox="0 0 29.2 28.5" style="enable-background:new 0 0 29.2 28.5;" xml:space="preserve">
<style type="text/css">
	.st0{fill:none;stroke:#000000;stroke-width:0.5;stroke-miterlimit:10;}
	.st1{fill:none;stroke:#000000;stroke-width:0.6;stroke-miterlimit:10;}
	.st2{fill-rule:evenodd;clip-rule:evenodd;fill:#FFFFFF;}
	.st3{fill:#FFFFFF;}
</style>
<path class="st0" d="M26.4,13.6"/>
<path class="st1" d="M24.1,20.7c-2.1,2.9-5.6,4.8-9.5,4.8c-6.5,0-11.8-5.3-11.8-11.8S8.1,1.8,14.6,1.8c3.7,0,6.9,1.7,9.1,4.3"/>
<circle class="st2" cx="26.3" cy="13.7" r="1.1"/>
<g>
	<path d="M5.8,14.8L5.8,14.8c0.1-0.1,0.1,0,0.1,0c0,0,0.1,0.1,0.2,0.1c0.1,0.1,0.3,0.1,0.4,0.1c0.3,0,0.5-0.1,0.6-0.2
		c0.1-0.1,0.2-0.3,0.2-0.5c0-0.1,0-0.2-0.1-0.3c0-0.1-0.1-0.1-0.2-0.2c-0.1-0.1-0.2-0.1-0.2-0.1c-0.1,0-0.2-0.1-0.3-0.1
		c-0.1,0-0.2-0.1-0.2-0.1s-0.1,0-0.2-0.1c-0.1,0-0.1-0.1-0.2-0.1c0,0-0.1-0.1-0.1-0.1c0,0-0.1-0.1-0.1-0.2s0-0.1,0-0.2
		c0-0.2,0.1-0.4,0.2-0.5c0.2-0.1,0.4-0.2,0.6-0.2c0.2,0,0.3,0,0.4,0.1c0.1,0,0.2,0.1,0.3,0.1l0.1,0.1l-0.1,0.1c0,0-0.1,0-0.1-0.1
		c0,0-0.1-0.1-0.2-0.1c-0.1,0-0.3-0.1-0.4-0.1c-0.2,0-0.4,0.1-0.5,0.2C6,12.6,5.9,12.8,5.9,13c0,0.1,0,0.2,0.1,0.2
		c0,0.1,0.1,0.1,0.2,0.2c0.1,0.1,0.2,0.1,0.2,0.1c0.1,0,0.2,0.1,0.3,0.1c0.1,0,0.2,0.1,0.3,0.1c0.1,0,0.2,0.1,0.3,0.1
		c0.1,0.1,0.2,0.1,0.2,0.2c0,0.1,0.1,0.2,0.1,0.3c0,0.2-0.1,0.4-0.2,0.5c-0.1,0.1-0.4,0.2-0.7,0.2c-0.2,0-0.3,0-0.4-0.1
		C6.1,15,6,15,5.8,14.8L5.8,14.8z"/>
	<path class="st3" d="M10,12.3v2.8H9.8v-1.3H8.3v1.3H8.1v-2.8h0.2v1.3h1.5v-1.3H10z"/>
	<path class="st3" d="M12.3,13.6v0.2h-1.3v1.1h1.5v0.2h-1.7v-2.8h1.7v0.2h-1.5v1.1H12.3z"/>
	<path class="st3" d="M13,12.3h0.9c0.3,0,0.5,0.1,0.7,0.2c0.2,0.2,0.2,0.4,0.2,0.7c0,0.2-0.1,0.4-0.2,0.6c-0.1,0.1-0.3,0.2-0.5,0.3
		l0,0l0.7,0.9v0.1h-0.2l-0.7-1h-0.8v1H13V12.3z M14.7,13.2c0-0.2-0.1-0.4-0.2-0.5c-0.1-0.1-0.3-0.2-0.5-0.2h-0.7v1.4H14
		c0.2,0,0.4-0.1,0.5-0.2C14.6,13.6,14.7,13.5,14.7,13.2z"/>
	<path d="M17.6,15.1v-2.6l-1,1.4h-0.1l-1-1.4v2.6h-0.1v-2.8h0.1l1,1.5l1-1.5h0.1v2.8H17.6z"/>
	<path d="M19.4,12.3l1,2.8h-0.1L20,14.3h-1.3l-0.3,0.8h-0.1l1-2.8H19.4z M19.3,12.4l-0.6,1.8h1.3L19.3,12.4z"/>
	<path d="M22.9,12.3v2.8h-0.1L21,12.4v2.6h-0.1v-2.8H21l1.8,2.6L22.9,12.3L22.9,12.3z"/>
</g>
</svg>
