<?xml version="1.0" encoding="utf-8"?>
<!-- Generator: Adobe Illustrator 24.3.0, SVG Export Plug-In . SVG Version: 6.00 Build 0)  -->
<svg version="1.1" id="Capa_1" xmlns="http://www.w3.org/2000/svg" xmlns:xlink="http://www.w3.org/1999/xlink" x="0px" y="0px"
	 viewBox="0 0 29.2 28.5" style="enable-background:new 0 0 29.2 28.5;" xml:space="preserve">
<style type="text/css">
	.st0{fill:none;stroke:#000000;stroke-width:0.5;stroke-miterlimit:10;}
	.st1{fill:none;stroke:#604294;stroke-width:0.5;stroke-miterlimit:10;}
	.st2{fill:#604294;}
	.st3{stroke:#000000;stroke-width:5.000000e-02;stroke-miterlimit:10;}
	.st4{fill-rule:evenodd;clip-rule:evenodd;}
</style>
<path class="st0" d="M26.4,13.6"/>
<path class="st1" d="M24.1,20.7c-2.1,2.9-5.6,4.8-9.5,4.8c-6.5,0-11.8-5.3-11.8-11.8S8.1,1.8,14.6,1.8c3.7,0,6.9,1.7,9.1,4.3"/>
<g>
	<path class="st2" d="M6.9,14.4c0-0.2-0.1-0.3-0.2-0.4s-0.3-0.2-0.6-0.3c-0.3-0.1-0.5-0.2-0.6-0.3c-0.2-0.1-0.3-0.3-0.3-0.5
		s0.1-0.4,0.3-0.5c0.2-0.1,0.4-0.2,0.7-0.2c0.2,0,0.3,0,0.5,0.1C6.8,12.5,7,12.6,7,12.7c0.1,0.1,0.1,0.3,0.1,0.4H6.9
		c0-0.2-0.1-0.3-0.2-0.5s-0.3-0.2-0.5-0.2s-0.4,0-0.5,0.1S5.5,12.8,5.5,13c0,0.1,0.1,0.3,0.2,0.3c0.1,0.1,0.3,0.2,0.5,0.2
		s0.4,0.1,0.6,0.2S7,13.9,7.1,14s0.1,0.2,0.1,0.4s-0.1,0.4-0.3,0.5c-0.2,0.1-0.4,0.2-0.7,0.2c-0.2,0-0.4,0-0.5-0.1
		c-0.2-0.1-0.3-0.2-0.4-0.3s-0.1-0.3-0.1-0.4h0.2c0,0.2,0.1,0.3,0.2,0.5C5.7,14.9,5.9,15,6.2,15c0.2,0,0.4,0,0.5-0.1
		C6.9,14.7,6.9,14.6,6.9,14.4z"/>
	<path class="st3" d="M9.7,15.1H9.5v-1.3H7.9v1.3H7.7v-2.8h0.2v1.2h1.6v-1.2h0.2V15.1z"/>
	<path class="st3" d="M13.7,13.9h-0.8v1.2h-0.2v-2.8h0.9c0.3,0,0.5,0.1,0.7,0.2s0.2,0.3,0.2,0.6c0,0.2-0.1,0.3-0.2,0.5
		c-0.1,0.1-0.2,0.2-0.4,0.3l0.7,1.2l0,0h-0.2L13.7,13.9z M12.9,13.7h0.7c0.2,0,0.4-0.1,0.5-0.2s0.2-0.3,0.2-0.4
		c0-0.2-0.1-0.3-0.2-0.5c-0.1-0.1-0.3-0.2-0.5-0.2h-0.7V13.7z"/>
	<path class="st2" d="M15.4,12.3l1,2.4l1-2.4h0.3v2.8h-0.2v-1.2v-1.2l-1,2.4h-0.2l-1-2.4v1.2v1.2h-0.2v-2.8
		C15.1,12.3,15.4,12.3,15.4,12.3z"/>
	<path class="st2" d="M20,14.3h-1.3l-0.3,0.8h-0.2l1-2.8h0.2l1,2.8h-0.2L20,14.3z M18.8,14.1h1.1l-0.6-1.5L18.8,14.1z"/>
	<path class="st2" d="M23,15.1h-0.2l-1.6-2.4v2.4H21v-2.8h0.2l1.6,2.4v-2.4H23V15.1z"/>
</g>
<circle class="st4" cx="26.3" cy="13.7" r="1.1"/>
<rect x="10.4" y="12.3" class="st3" width="1.8" height="0.3"/>
<rect x="10.4" y="13.5" class="st3" width="1.7" height="0.3"/>
<rect x="10.4" y="14.9" class="st3" width="1.8" height="0.3"/>
</svg>
