<?xml version="1.0" encoding="utf-8"?>
<!-- Generator: Adobe Illustrator 24.3.0, SVG Export Plug-In . SVG Version: 6.00 Build 0)  -->
<svg version="1.1" id="Capa_1" xmlns="http://www.w3.org/2000/svg" xmlns:xlink="http://www.w3.org/1999/xlink" x="0px" y="0px"
	 viewBox="0 0 73.2 71.4" style="enable-background:new 0 0 73.2 71.4;" xml:space="preserve">
<style type="text/css">
	.st0{fill:none;stroke:#000000;stroke-width:0.5;stroke-miterlimit:10;}
	.st1{fill:none;stroke:#FFFFFF;stroke-width:0.5;stroke-miterlimit:10;}
	.st2{fill-rule:evenodd;clip-rule:evenodd;fill:#FFFFFF;}
	.st3{fill:none;stroke:#604294;stroke-width:0.5;stroke-miterlimit:10;}
	.st4{fill:#604294;}
	.st5{stroke:#000000;stroke-width:5.000000e-02;stroke-miterlimit:10;}
	.st6{fill-rule:evenodd;clip-rule:evenodd;}
	.st7{fill:#FFFFFF;}
</style>
<path class="st0" d="M68.7,36"/>
<path class="st1" d="M62.1,56.1c-6,8.2-15.9,13.6-26.9,13.6c-18.4,0-33.5-15-33.5-33.5s15-33.7,33.5-33.7c10.5,0,19.6,4.8,25.8,12.2
	"/>
<circle class="st2" cx="68.1" cy="36.1" r="3.1"/>
<path class="st0" d="M-5.5,13.6"/>
<path class="st3" d="M-7.8,20.7c-2.1,2.9-5.6,4.8-9.5,4.8c-6.5,0-11.8-5.3-11.8-11.8s5.3-11.9,11.8-11.9c3.7,0,6.9,1.7,9.1,4.3"/>
<g>
	<path class="st4" d="M-25,14.4c0-0.2-0.1-0.3-0.2-0.4s-0.3-0.2-0.6-0.3c-0.3-0.1-0.5-0.2-0.6-0.3c-0.2-0.1-0.3-0.3-0.3-0.5
		s0.1-0.4,0.3-0.5c0.2-0.1,0.4-0.2,0.7-0.2c0.2,0,0.3,0,0.5,0.1c0.1,0.2,0.3,0.3,0.3,0.4c0.1,0.1,0.1,0.3,0.1,0.4H-25
		c0-0.2-0.1-0.3-0.2-0.5s-0.3-0.2-0.5-0.2s-0.4,0-0.5,0.1s-0.2,0.3-0.2,0.5c0,0.1,0.1,0.3,0.2,0.3c0.1,0.1,0.3,0.2,0.5,0.2
		s0.4,0.1,0.6,0.2c0.2,0.1,0.2,0.2,0.3,0.3s0.1,0.2,0.1,0.4s-0.1,0.4-0.3,0.5c-0.2,0.1-0.4,0.2-0.7,0.2c-0.2,0-0.4,0-0.5-0.1
		c-0.2-0.1-0.3-0.2-0.4-0.3s-0.1-0.3-0.1-0.4h0.2c0,0.2,0.1,0.3,0.2,0.5c0.1,0.1,0.3,0.2,0.6,0.2c0.2,0,0.4,0,0.5-0.1
		C-25,14.7-25,14.6-25,14.4z"/>
	<path class="st5" d="M-22.2,15.1h-0.2v-1.3H-24v1.3h-0.2v-2.8h0.2v1.2h1.6v-1.2h0.2C-22.2,12.3-22.2,15.1-22.2,15.1z"/>
	<path class="st5" d="M-18.2,13.9H-19v1.2h-0.2v-2.8h0.9c0.3,0,0.5,0.1,0.7,0.2c0.2,0.1,0.2,0.3,0.2,0.6c0,0.2-0.1,0.3-0.2,0.5
		c-0.1,0.1-0.2,0.2-0.4,0.3l0.7,1.2l0,0h-0.2L-18.2,13.9z M-19,13.7h0.7c0.2,0,0.4-0.1,0.5-0.2s0.2-0.3,0.2-0.4
		c0-0.2-0.1-0.3-0.2-0.5c-0.1-0.1-0.3-0.2-0.5-0.2H-19V13.7z"/>
	<path class="st4" d="M-16.5,12.3l1,2.4l1-2.4h0.3v2.8h-0.2v-1.2v-1.2l-1,2.4h-0.2l-1-2.4v1.2v1.2h-0.2v-2.8
		C-16.8,12.3-16.5,12.3-16.5,12.3z"/>
	<path class="st4" d="M-11.9,14.3h-1.3l-0.3,0.8h-0.2l1-2.8h0.2l1,2.8h-0.2L-11.9,14.3z M-13.1,14.1h1.1l-0.6-1.5L-13.1,14.1z"/>
	<path class="st4" d="M-8.9,15.1h-0.2l-1.6-2.4v2.4h-0.2v-2.8h0.2l1.6,2.4v-2.4h0.2V15.1z"/>
</g>
<circle class="st6" cx="-5.6" cy="13.7" r="1.1"/>
<rect x="-21.5" y="12.3" class="st5" width="1.8" height="0.3"/>
<rect x="-21.5" y="13.5" class="st5" width="1.7" height="0.3"/>
<rect x="-21.5" y="14.9" class="st5" width="1.8" height="0.3"/>
<g>
	<path d="M12.5,39.2l0.3-0.4c0,0.1,0.1,0.1,0.2,0.2c0.1,0.1,0.3,0.2,0.6,0.3c0.3,0.1,0.6,0.2,1,0.2c0.6,0,1-0.1,1.3-0.4
		c0.3-0.2,0.4-0.6,0.4-1c0-0.4-0.1-0.7-0.4-0.9c-0.3-0.2-0.7-0.4-1.3-0.6c-0.7-0.2-1.2-0.5-1.6-0.7c-0.3-0.3-0.5-0.7-0.5-1.2
		c0-0.6,0.2-1,0.6-1.3c0.4-0.3,0.9-0.5,1.5-0.5c0.4,0,0.8,0.1,1.1,0.2c0.3,0.1,0.6,0.2,0.7,0.3l0.2,0.2l-0.3,0.4
		c-0.1,0-0.1-0.1-0.2-0.2c-0.1-0.1-0.3-0.1-0.6-0.3c-0.3-0.1-0.6-0.2-1-0.2c-0.5,0-0.8,0.1-1.2,0.3c-0.3,0.2-0.5,0.5-0.5,1
		c0,0.4,0.1,0.6,0.4,0.8c0.3,0.2,0.7,0.4,1.3,0.6c0.7,0.2,1.2,0.5,1.6,0.8c0.3,0.3,0.5,0.7,0.5,1.3c0,0.6-0.2,1-0.6,1.3
		c-0.4,0.3-0.9,0.5-1.7,0.5c-0.3,0-0.5,0-0.7-0.1c-0.2-0.1-0.4-0.1-0.6-0.2c-0.2-0.1-0.3-0.1-0.4-0.2C12.7,39.4,12.6,39.3,12.5,39.2
		L12.5,39.2z"/>
	<path class="st7" d="M23,33v6.8h-0.8v-3h-3.4v3H18V33h0.8v3.1h3.4V33H23z"/>
	<path class="st7" d="M28.5,36v0.7h-3.1v2.3h3.6v0.7h-4.4V33h4.4v0.7h-3.6V36H28.5z"/>
	<path class="st7" d="M30.3,33h2.5c0.7,0,1.3,0.2,1.7,0.6c0.4,0.4,0.6,1,0.6,1.7c0,0.5-0.1,1-0.4,1.3c-0.2,0.4-0.6,0.6-1,0.8l0,0
		l1.5,2.2v0.2h-0.9l-1.6-2.3h-1.8v2.3h-0.8V33z M34.3,35.3c0-0.5-0.1-0.9-0.4-1.2c-0.3-0.3-0.7-0.4-1.2-0.4h-1.7v3.1h1.7
		c0.5,0,0.8-0.1,1.1-0.4C34.2,36.2,34.3,35.8,34.3,35.3z"/>
	<path d="M41.7,39.8v-5.9l-2.2,3.2h-0.2l-2.2-3.2v5.9h-0.5V33H37l2.4,3.5l2.4-3.5h0.4v6.8H41.7z"/>
	<path d="M46.4,33l2.6,6.8h-0.5L47.8,38h-3.3l-0.7,1.8h-0.5l2.6-6.8H46.4z M46.1,33.6l-1.5,3.9h2.9L46.1,33.6z"/>
	<path d="M55,33v6.8h-0.4l-4.1-5.9v5.9H50V33h0.4l4.1,5.9V33H55z"/>
</g>
<rect x="-2.2" y="-14.9" style="fill:none;" width="57.3" height="11.7"/>
<text transform="matrix(1 0 0 1 -2.1575 -7.0771)"><tspan x="0" y="0" style="font-family:'TextaNarrow-Regular'; font-size:13px;">S</tspan><tspan x="6" y="0" class="st7" style="font-family:'TextaNarrow-Regular'; font-size:13px;">HER</tspan><tspan x="27.2" y="0" style="font-family:'TextaNarrow-Regular'; font-size:13px;">MAN</tspan></text>
</svg>
