<?xml version="1.0" encoding="utf-8"?>
<!-- Generator: Adobe Illustrator 24.3.0, SVG Export Plug-In . SVG Version: 6.00 Build 0)  -->
<svg version="1.1" id="Capa_1" xmlns="http://www.w3.org/2000/svg" xmlns:xlink="http://www.w3.org/1999/xlink" x="0px" y="0px"
	 viewBox="0 0 71.6 48.7" style="enable-background:new 0 0 71.6 48.7;" xml:space="preserve">
<style type="text/css">
	.st0{fill:#573591;}
</style>
<g>
	<path class="st0" d="M25.7,19c-0.1,0.9-0.4,1.5-0.9,2s-1.2,0.7-2.1,0.7c-0.6,0-1.1-0.1-1.6-0.5S20.2,20.5,20,20s-0.4-1.2-0.4-1.9
		v-1.3c0-0.7,0.1-1.4,0.4-1.9s0.6-1,1.1-1.3s1-0.5,1.6-0.5c0.9,0,1.6,0.2,2.1,0.7s0.8,1.1,0.9,2h-0.3c-0.1-0.8-0.4-1.4-0.8-1.8
		s-1.1-0.6-1.9-0.6c-0.8,0-1.5,0.3-2,0.9s-0.8,1.5-0.8,2.5V18c0,0.7,0.1,1.3,0.3,1.8s0.5,0.9,1,1.2s0.9,0.4,1.5,0.4
		c0.8,0,1.5-0.2,1.9-0.6s0.7-1,0.8-1.8L25.7,19L25.7,19z"/>
	<path class="st0" d="M28.2,21.6h-0.3v-8.5h0.3V21.6z"/>
	<path class="st0" d="M37,21.6h-0.3l-5.5-8v8h-0.3v-8.5h0.3l5.5,8v-8H37V21.6z"/>
	<path class="st0" d="M39.3,21.6v-8.5h2.4c0.7,0,1.3,0.2,1.8,0.5s1,0.8,1.3,1.3s0.5,1.2,0.5,1.9v1.1c0,0.7-0.2,1.4-0.5,1.9
		s-0.7,1-1.2,1.3s-1.1,0.5-1.8,0.5L39.3,21.6L39.3,21.6z M39.6,13.4v7.9h2c0.6,0,1.1-0.1,1.6-0.4s0.9-0.7,1.2-1.2s0.4-1.1,0.4-1.7
		v-1.1c0-0.6-0.1-1.2-0.4-1.7s-0.7-0.9-1.1-1.2s-1-0.4-1.6-0.4C41.7,13.4,39.6,13.4,39.6,13.4z"/>
	<path class="st0" d="M49.3,18.1l3-5h0.4l-3.2,5.3v3.2h-0.3v-3.2l-3.2-5.3h0.4L49.3,18.1z"/>
</g>
<g>
	<path class="st0" d="M11.7,31.3c0-0.3-0.1-0.5-0.3-0.7s-0.6-0.3-1.1-0.5s-1-0.4-1.3-0.5c-1.1-0.5-1.7-1.3-1.7-2.2
		c0-0.5,0.1-0.9,0.4-1.2s0.7-0.6,1.2-0.8s1.1-0.3,1.7-0.3c0.6,0,1.2,0.1,1.6,0.3s0.9,0.5,1.1,0.9s0.4,0.9,0.4,1.4h-2
		c0-0.4-0.1-0.6-0.3-0.8s-0.5-0.3-0.9-0.3c-0.4,0-0.7,0.1-0.9,0.2s-0.3,0.4-0.3,0.6c0,0.2,0.1,0.4,0.4,0.6s0.6,0.4,1.2,0.5
		s1.1,0.4,1.4,0.6c0.9,0.5,1.4,1.3,1.4,2.2c0,0.8-0.3,1.3-0.8,1.8s-1.3,0.6-2.3,0.6c-0.7,0-1.3-0.1-1.9-0.4s-1-0.6-1.3-1
		C7.2,31.9,7,31.4,7,30.8h2.1c0,0.5,0.1,0.8,0.4,1c0.2,0.2,0.6,0.3,1.1,0.3c0.3,0,0.6-0.1,0.8-0.2C11.6,31.8,11.7,31.6,11.7,31.3z"
		/>
	<path class="st0" d="M21.9,33.6h-2V30h-3v3.6h-2.1V25h2.1v3.4h3V25h2V33.6z"/>
	<path class="st0" d="M28.5,30h-3.2v2h3.8v1.6h-5.9V25h5.9v1.6h-3.8v1.8h3.2V30z"/>
	<path class="st0" d="M33.1,30.6H32v3h-2.1V25h3.4c1,0,1.8,0.2,2.4,0.7s0.9,1.1,0.9,1.9c0,0.6-0.1,1.1-0.4,1.5s-0.6,0.7-1.1,1
		l1.8,3.4v0.1h-2.2L33.1,30.6z M32,29h1.3c0.4,0,0.7-0.1,0.9-0.3s0.3-0.5,0.3-0.9s-0.1-0.7-0.3-0.9s-0.5-0.3-0.9-0.3H32V29z"/>
	<path class="st0" d="M40.5,25l1.9,5.9l1.9-5.9H47v8.5h-2.1v-2l0.2-4.1l-2.1,6.1h-1.4l-2.1-6.1l0.2,4.1v2h-2.1V25L40.5,25L40.5,25z"
		/>
	<path class="st0" d="M53.2,32h-2.8l-0.5,1.6h-2.2l3.1-8.5h1.9l3.2,8.5h-2.2L53.2,32z M50.9,30.4h1.8l-0.9-3L50.9,30.4z"/>
	<path class="st0" d="M63.7,33.6h-2l-3-5.3v5.3h-2.1V25h2.1l3,5.3V25h2L63.7,33.6L63.7,33.6z"/>
</g>
</svg>
