<?xml version="1.0" encoding="utf-8"?>
<!-- Generator: Adobe Illustrator 24.3.0, SVG Export Plug-In . SVG Version: 6.00 Build 0)  -->
<svg version="1.1" id="Capa_1" xmlns="http://www.w3.org/2000/svg" xmlns:xlink="http://www.w3.org/1999/xlink" x="0px" y="0px"
	 viewBox="0 0 71.64 48.72" style="enable-background:new 0 0 71.64 48.72;" xml:space="preserve">
<g>
	<path d="M25.73,18.99c-0.08,0.88-0.38,1.55-0.91,2.02s-1.23,0.71-2.13,0.71c-0.61,0-1.14-0.15-1.61-0.46s-0.83-0.74-1.09-1.31
		s-0.39-1.21-0.39-1.94V16.7c0-0.73,0.13-1.38,0.38-1.95s0.62-1.01,1.09-1.33s1.01-0.47,1.62-0.47c0.89,0,1.6,0.23,2.13,0.7
		s0.83,1.14,0.91,2.02h-0.32c-0.09-0.79-0.36-1.38-0.82-1.79s-1.09-0.61-1.9-0.61c-0.83,0-1.5,0.31-2.01,0.94s-0.76,1.46-0.76,2.51
		v1.25c0,0.67,0.11,1.27,0.34,1.78s0.55,0.92,0.98,1.21s0.91,0.43,1.46,0.43c0.82,0,1.45-0.2,1.91-0.6s0.73-1.01,0.81-1.81H25.73z"
		/>
	<path d="M28.25,21.61h-0.32v-8.53h0.32V21.61z"/>
	<path d="M36.98,21.61h-0.32l-5.51-7.99v7.99h-0.32v-8.53h0.32l5.51,7.97v-7.97h0.32V21.61z"/>
	<path d="M39.32,21.61v-8.53h2.36c0.66,0,1.26,0.16,1.79,0.47s0.96,0.75,1.26,1.32s0.46,1.2,0.47,1.9v1.11
		c0,0.71-0.15,1.35-0.45,1.92s-0.72,1.02-1.25,1.34s-1.13,0.48-1.79,0.49H39.32z M39.64,13.39v7.9h2.04c0.6,0,1.14-0.15,1.63-0.44
		s0.87-0.7,1.15-1.22s0.42-1.1,0.42-1.74v-1.1c0-0.64-0.14-1.21-0.41-1.73s-0.65-0.93-1.14-1.22s-1.02-0.45-1.61-0.45H39.64z"/>
	<path d="M49.32,18.08l2.99-5h0.39l-3.22,5.29v3.24h-0.32v-3.24l-3.22-5.29h0.42L49.32,18.08z"/>
</g>
<g>
	<path d="M11.69,31.31c0-0.3-0.11-0.54-0.32-0.7s-0.59-0.34-1.12-0.52s-0.97-0.35-1.31-0.52c-1.11-0.54-1.66-1.29-1.66-2.24
		c0-0.47,0.14-0.89,0.41-1.25s0.67-0.64,1.17-0.84s1.07-0.3,1.7-0.3c0.61,0,1.16,0.11,1.65,0.33s0.86,0.53,1.13,0.93
		s0.4,0.87,0.4,1.39H11.7c0-0.35-0.11-0.62-0.32-0.81s-0.5-0.29-0.86-0.29c-0.37,0-0.66,0.08-0.87,0.24s-0.32,0.37-0.32,0.62
		c0,0.22,0.12,0.42,0.35,0.59s0.65,0.36,1.24,0.55s1.07,0.39,1.45,0.61c0.92,0.53,1.38,1.26,1.38,2.2c0,0.75-0.28,1.33-0.84,1.76
		s-1.33,0.64-2.31,0.64c-0.69,0-1.32-0.12-1.88-0.37s-0.98-0.59-1.27-1.02c-0.28-0.43-0.42-0.93-0.42-1.49h2.06
		c0,0.46,0.12,0.79,0.35,1.01c0.24,0.22,0.62,0.33,1.15,0.33c0.34,0,0.61-0.07,0.81-0.22C11.59,31.78,11.69,31.57,11.69,31.31z"/>
	<path d="M21.93,33.57h-2.04v-3.56h-3.03v3.56H14.8v-8.53h2.06v3.39h3.03v-3.39h2.04V33.57z"/>
	<path d="M28.53,29.95h-3.23v2.04h3.82v1.58h-5.88v-8.53h5.89v1.59h-3.83v1.8h3.23V29.95z"/>
	<path d="M33.12,30.56h-1.11v3.02h-2.06v-8.53h3.36c1.01,0,1.8,0.22,2.37,0.67c0.57,0.45,0.86,1.08,0.86,1.9
		c0,0.59-0.12,1.08-0.36,1.48s-0.62,0.71-1.13,0.95l1.78,3.44v0.09h-2.2L33.12,30.56z M32.01,28.97h1.3c0.39,0,0.68-0.1,0.88-0.31
		c0.2-0.21,0.3-0.49,0.3-0.86s-0.1-0.66-0.3-0.87s-0.49-0.31-0.88-0.31h-1.3V28.97z"/>
	<path d="M40.48,25.04l1.9,5.94l1.9-5.94h2.71v8.53h-2.06v-1.99l0.2-4.08l-2.06,6.07H41.7l-2.07-6.08l0.2,4.08v1.99h-2.06v-8.53
		H40.48z"/>
	<path d="M53.25,31.98h-2.82l-0.49,1.59h-2.2l3.13-8.53h1.93l3.15,8.53h-2.21L53.25,31.98z M50.92,30.39h1.83l-0.92-2.96
		L50.92,30.39z"/>
	<path d="M63.7,33.57h-2.04l-3.02-5.31v5.31h-2.06v-8.53h2.06l3.02,5.31v-5.31h2.05V33.57z"/>
</g>
</svg>
