<?xml version="1.0" encoding="utf-8"?>
<!-- Generator: Adobe Illustrator 24.3.0, SVG Export Plug-In . SVG Version: 6.00 Build 0)  -->
<svg version="1.1" id="Capa_1" xmlns="http://www.w3.org/2000/svg" xmlns:xlink="http://www.w3.org/1999/xlink" x="0px" y="0px"
	 viewBox="0 0 32.3 29.3" style="enable-background:new 0 0 32.3 29.3;" xml:space="preserve">
<style type="text/css">
	.st0{fill-rule:evenodd;clip-rule:evenodd;fill:#FFFFFF;}
</style>
<g>
	<path class="st0" d="M3.4,3.8C3,3.8,2.8,3.5,2.8,3.2c0-0.4,0.2-0.6,0.6-0.6h26.2c0.2,0,0.6,0.2,0.6,0.6c0,0.4-0.4,0.6-0.6,0.6H3.4z
		 M3.4,27.1L3.4,27.1c-0.4,0-0.6-0.2-0.6-0.6c0-0.4,0.2-0.6,0.6-0.6h26.2c0.2,0,0.6,0.2,0.6,0.6c0,0.4-0.4,0.6-0.6,0.6H3.4z
		 M3.4,15.4L3.4,15.4c-0.4,0-0.6-0.2-0.6-0.6c0-0.2,0.2-0.5,0.6-0.5h26.2c0.2,0,0.6,0.3,0.6,0.5c0,0.4-0.4,0.6-0.6,0.6H3.4z"/>
</g>
</svg>
