<?xml version="1.0" encoding="utf-8"?>
<!-- Generator: Adobe Illustrator 24.3.0, SVG Export Plug-In . SVG Version: 6.00 Build 0)  -->
<svg version="1.1" id="Capa_1" xmlns="http://www.w3.org/2000/svg" xmlns:xlink="http://www.w3.org/1999/xlink" x="0px" y="0px"
	 viewBox="0 0 29.2 28.5" style="enable-background:new 0 0 29.2 28.5;" xml:space="preserve">
<style type="text/css">
	.st0{fill-rule:evenodd;clip-rule:evenodd;}
</style>
<g>
	<g>
		<path class="st0" d="M27.8,13.7C28,23.2,17.1,29.5,8.9,24.8L1.8,27l2.3-6.8C-1,12,5.3,0.9,15.1,1C22.1,1,27.8,6.7,27.8,13.7
			L27.8,13.7z M15.1,3.1C9.2,3.1,4.3,7.8,4.3,13.7c0,2.3,0.8,4.5,2,6.2l-1.3,4l4.1-1.3c1.7,1.1,3.7,1.8,5.9,1.8
			c5.9,0,10.7-4.8,10.7-10.6C25.8,7.8,21,3.1,15.1,3.1L15.1,3.1z M21.5,16.6c-0.1-0.1-0.3-0.2-0.6-0.4c-0.3-0.2-1.9-0.9-2.1-1
			c-0.3-0.1-0.5-0.2-0.7,0.2c-0.2,0.3-0.8,1-1,1.2c-0.2,0.2-0.4,0.2-0.7,0.1c-0.3-0.2-1.3-0.5-2.5-1.5c-0.9-0.8-1.6-1.8-1.7-2.2
			c-0.2-0.3,0-0.5,0.1-0.6s0.3-0.4,0.5-0.5c0.2-0.2,0.2-0.3,0.3-0.5s0.1-0.4,0-0.5c-0.1-0.2-0.7-1.7-1-2.3S11.6,8,11.4,8
			s-0.5,0.1-0.5,0.1s-0.7-0.1-1,0.2c-0.3,0.3-1.1,1.1-1.1,2.6s1.1,3,1.3,3.2s2.2,3.4,5.3,4.7c3.2,1.2,3.2,0.8,3.8,0.8
			c0.6-0.1,1.9-0.8,2.1-1.5C21.6,17.4,21.6,16.7,21.5,16.6L21.5,16.6z"/>
	</g>
</g>
</svg>
